<?xml version="1.0" encoding="utf-8"?>
<!-- Generator: Adobe Illustrator 27.0.0, SVG Export Plug-In . SVG Version: 6.00 Build 0)  -->
<svg version="1.1" xmlns="http://www.w3.org/2000/svg" xmlns:xlink="http://www.w3.org/1999/xlink" x="0px" y="0px"
	 viewBox="0 0 1119.1 356.1" style="enable-background:new 0 0 1119.1 356.1;" xml:space="preserve">
<style type="text/css">
	.st0{display:none;}
	.st1{display:inline;}
	.st2{fill:#FFFFFF;}
	.st3{font-family:'Arial-BoldMT';}
	.st4{font-size:108.2812px;}
	.st5{letter-spacing:21.6;}
</style>
<g id="Background" class="st0">
	<rect x="-60.8" y="-33.2" class="st1" width="1185.5" height="405.2"/>
</g>
<g id="Text">
	<g>
		<path class="st2" d="M456,189.3c34,0,55-19,55-47c0-24-15-37-50-46c-29-7-34-12-34-22s10-16,23-16s25,5,39,15c0,0,1,1,2,1s1-1,1-1
			l14-20c1-1,1-1,0-2c-16-13-35-20-56-20c-31,0-53,19-53,46c0,29,20,38,52,46c28,6,32,12,32,22c0,11-10,17-25,17c-17,0-33-6-47-20
			c-1,0-1,1-1,1l-16,19c-1,1-1,2,0,3C410,181.3,432,189.3,456,189.3z"/>
		<path class="st2" d="M712,68.3c-35,0-63,27-63,61s27,60,62,60s62-27,62-61S747,68.3,712,68.3z M712,163.3c-19,0-33-15-33-35
			s13-34,32-34s33,15,33,35S731,163.3,712,163.3z"/>
		<path class="st2" d="M878,19.3c-10,0-19,8-19,18s9,19,19,19s18-9,18-19S888,19.3,878,19.3z"/>
		<path class="st2" d="M849,70.3h-30v-29c0-1,0-2-1-2h-26c-1,0-2,1-2,2v29h-13c-1,0-2,1-2,2v22c0,1,1,2,2,2h13v58c0,23,11,35,34,35
			c9,0,18-2,25-6c1,0,1-1,1-2v-21c0-1,0-2-1-2h-2c-5,3-11,4-16,4c-8,0-12-4-12-12v-54h30c1,0,2-1,2-2v-22
			C851,71.3,850,70.3,849,70.3z"/>
		<path class="st2" d="M891,70.3h-26c-1,0-2,1-2,2v113c0,1,1,2,2,2h26c1,0,1-1,1-2v-113C892,71.3,892,70.3,891,70.3z"/>
		<path class="st2" d="M1080,70.3h-27c-1,0-1,1-1,2l-28,78l-30-78c0-1-1-2-2-2h-44v-3c0-11,4-15,13-15c5,0,10,0,15,2h1c0,0,1-1,1-2
			v-21c0-1,0-2-1-2c-5-2-12-3-22-3c-24,0-36,14-36,39v5h-13c-1,0-2,1-2,2v22c0,1,1,2,2,2h13v89c0,1,1,2,2,2h26c1,0,1-1,1-2v-89h25
			l37,89c-4,9-8,11-14,11c-5,0-10-1-15-4h-1l-1,1l-9,19c0,1,0,3,1,3c9,5,17,7,27,7c19,0,30-9,39-33l45-116v-2
			C1082,70.3,1081,70.3,1080,70.3z"/>
		<path class="st2" d="M587,68.3c-15,0-26,5-36,17v-13c0-1-1-2-2-2h-26c-1,0-2,1-2,2v147c0,1,1,2,2,2h26c1,0,2-1,2-2v-46
			c10,11,21,16,36,16c27,0,54-21,54-61S614,68.3,587,68.3z M581,163.3c-18,0-31-15-31-35s13-34,31-34s30,14,30,34
			S599,163.3,581,163.3z"/>
	</g>
	<text transform="matrix(1.7091 0 0 1 390.6992 315.3378)" class="st2 st3 st4 st5">VINYL</text>
</g>
<g id="Record">
	<path id="Label__x26__Hole" class="st2" d="M169.9,118.9c-28.4,0-51.3,22.9-51.3,51.2c0,28.3,23,51.2,51.3,51.2
		c28.4,0,51.3-22.9,51.3-51.2C221.2,141.9,198.3,118.9,169.9,118.9z M169.9,180.3c-5.7,0-10.3-4.6-10.3-10.3
		c0-5.7,4.6-10.3,10.3-10.3s10.3,4.6,10.3,10.3C180.1,175.7,175.5,180.3,169.9,180.3z"/>
	<path id="Record_00000041257582024399072740000007248706991030073753_" class="st2" d="M170.9,0C76.5,0,0,76.5,0,170.9
		s76.5,170.9,170.9,170.9s170.9-76.5,170.9-170.9S265.3,0,170.9,0z M112.2,257.5c25.2,16.1,64,20.6,93.7,11.5
		c9.5-2.9,12.9,12,3.9,14.3c-34.2,10.3-76.3,5.2-105.5-13.2C96.4,265,104.3,252.4,112.2,257.5z M121.7,231.7
		c21.9,13.8,49.9,17.2,82.5,9.8c7.9-1.1,9,10.3,2.2,11.5c-35.9,8.6-66.2,4.6-90.9-10.9C109.4,238,115.5,228.3,121.7,231.7z
		 M215.4,315.5c-33.1,10.3-89.2,8.6-124-12.6c-9.5-5.2-0.6-21.2,9.5-15.5c30.3,18.4,80.8,20.1,109.4,10.9
		C219.9,294.8,226,311.4,215.4,315.5z M170.2,231.6c-34.2,0-61.8-27.7-61.8-61.8s27.7-61.8,61.8-61.8s61.8,27.7,61.8,61.8
		S204.3,231.6,170.2,231.6z M132.8,87.9c34.9-8.2,64.4-4.4,88.4,10.4c6,3.8,0,13.1-6,9.8C193.9,95,166.6,91.7,135,98.8
		C127.3,99.9,126.2,89,132.8,87.9z M224.5,83.5c-24.6-15.3-62.2-19.7-91.2-10.9c-9.3,2.7-12.6-11.5-3.8-13.6
		c33.3-9.8,74.2-4.9,102.6,12.6C239.8,76.4,232.1,88.4,224.5,83.5z M235.4,55.1C205.9,37.7,156.8,36,129,44.7
		c-9.3,3.3-15.3-12.6-4.9-16.4c32.2-9.8,86.8-8.2,120.7,12C254,45.3,245.2,60.6,235.4,55.1z"/>
</g>
<g id="Guides" class="st0">
</g>
<g id="Isolation_Mode">
</g>
</svg>
