<svg id="Layer_1" data-name="Layer 1" xmlns="http://www.w3.org/2000/svg" xmlns:xlink="http://www.w3.org/1999/xlink" viewBox="0 0 3000 2000"><defs><style>.cls-1{fill:none;}.cls-2{clip-path:url(#clip-path);}.cls-3{fill:#fff;}</style><clipPath id="clip-path"><rect class="cls-1" width="3000" height="2000"/></clipPath></defs><g id="Intermediate"><g class="cls-2"><circle class="cls-3" cx="267.8" cy="1815.37" r="0.56"/><circle class="cls-3" cx="248.36" cy="1192.64" r="0.56"/><circle class="cls-3" cx="2859.06" cy="1199.89" r="0.56"/><circle class="cls-3" cx="1176.96" cy="476.82" r="0.56"/><circle class="cls-3" cx="2339.66" cy="1417.41" r="0.56"/><circle class="cls-3" cx="2279.48" cy="294.23" r="0.56"/><circle class="cls-3" cx="285.11" cy="818.35" r="0.56"/><circle class="cls-3" cx="433.82" cy="1244.6" r="0.56"/><circle class="cls-3" cx="465.36" cy="1801.48" r="0.56"/><circle class="cls-3" cx="1107.89" cy="286.03" r="0.56"/><circle class="cls-3" cx="231.71" cy="128.09" r="0.56"/><circle class="cls-3" cx="1490.74" cy="1695.03" r="0.56"/><circle class="cls-3" cx="243.78" cy="1748.56" r="0.56"/><circle class="cls-3" cx="2855.06" cy="1835.27" r="0.56"/><circle class="cls-3" cx="521.16" cy="915.46" r="0.56"/><circle class="cls-3" cx="1791.54" cy="783.75" r="0.56"/><circle class="cls-3" cx="376.69" cy="1160.36" r="0.56"/><circle class="cls-3" cx="2587.9" cy="1713.62" r="0.56"/><circle class="cls-3" cx="2029.08" cy="119.3" r="0.56"/><circle class="cls-3" cx="2105.52" cy="19.59" r="0.56"/><circle class="cls-3" cx="208.08" cy="885.84" r="0.56"/><circle class="cls-3" cx="1897.93" cy="1427.84" r="0.56"/><circle class="cls-3" cx="757.89" cy="1025.57" r="0.56"/><circle class="cls-3" cx="314.4" cy="1270.33" r="0.56"/><circle class="cls-3" cx="1109.29" cy="985.67" r="0.56"/><circle class="cls-3" cx="161.47" cy="798.6" r="0.56"/><circle class="cls-3" cx="976.12" cy="1553.25" r="0.56"/><circle class="cls-3" cx="1948.86" cy="1802.54" r="0.56"/><circle class="cls-3" cx="1616.56" cy="949.79" r="0.56"/><circle class="cls-3" cx="159.38" cy="1169.91" r="0.56"/><circle class="cls-3" cx="535.59" cy="317.27" r="0.56"/><circle class="cls-3" cx="2860.99" cy="1776" r="0.56"/><circle class="cls-3" cx="1046.43" cy="1220.58" r="0.56"/><circle class="cls-3" cx="907.24" cy="1829.99" r="0.56"/><circle class="cls-3" cx="2327.92" cy="1453.65" r="0.56"/><path class="cls-3" d="M602.12,255.4a.56.56,0,1,1-.56.56A.56.56,0,0,1,602.12,255.4Z"/><circle class="cls-3" cx="2077.24" cy="1168.05" r="0.56"/><circle class="cls-3" cx="2190.46" cy="1973.83" r="0.59"/><circle class="cls-3" cx="2946.03" cy="436.93" r="0.59"/><circle class="cls-3" cx="1968.54" cy="181.09" r="0.59"/><circle class="cls-3" cx="733.06" cy="1599.89" r="0.59"/><circle class="cls-3" cx="774.37" cy="299.47" r="0.59"/><circle class="cls-3" cx="2526.16" cy="897.48" r="0.59"/><circle class="cls-3" cx="498.07" cy="955.1" r="0.59"/><circle class="cls-3" cx="52.3" cy="1959.01" r="0.59"/><circle class="cls-3" cx="1334.57" cy="980.51" r="0.59"/><circle class="cls-3" cx="2613.97" cy="514.57" r="0.59"/><circle class="cls-3" cx="210.79" cy="1047.07" r="0.59"/><circle class="cls-3" cx="53.87" cy="486.44" r="0.59"/><circle class="cls-3" cx="1542.2" cy="1890.74" r="0.59"/><circle class="cls-3" cx="2438.64" cy="803.77" r="0.59"/><circle class="cls-3" cx="573.4" cy="400.7" r="0.59"/><circle class="cls-3" cx="2669.31" cy="1594.45" r="0.59"/><circle class="cls-3" cx="1581.28" cy="501.29" r="0.59"/><circle class="cls-3" cx="384.93" cy="1295.34" r="0.59"/><circle class="cls-3" cx="728.5" cy="15.83" r="0.59"/><circle class="cls-3" cx="1712.94" cy="1126.2" r="0.59"/><circle class="cls-3" cx="1714.1" cy="321.28" r="0.59"/><circle class="cls-3" cx="2833.54" cy="1996.92" r="0.59"/><circle class="cls-3" cx="1078.91" cy="822.15" r="0.59"/><circle class="cls-3" cx="438.47" cy="346.99" r="0.59"/><circle class="cls-3" cx="2585.92" cy="816.97" r="0.59"/><circle class="cls-3" cx="1027.04" cy="1975.97" r="0.59"/><circle class="cls-3" cx="2370.04" cy="1103.87" r="0.59"/><circle class="cls-3" cx="1504.66" cy="1221.65" r="0.59"/><circle class="cls-3" cx="1768.42" cy="949.96" r="0.59"/><circle class="cls-3" cx="1529.86" cy="1393.73" r="0.59"/><circle class="cls-3" cx="65.84" cy="934.95" r="0.59"/><circle class="cls-3" cx="931.96" cy="37.69" r="0.59"/><circle class="cls-3" cx="1737.41" cy="868" r="0.59"/><circle class="cls-3" cx="2088.36" cy="1510.31" r="0.59"/><circle class="cls-3" cx="1019.49" cy="1425.41" r="0.59"/><circle class="cls-3" cx="969.39" cy="261.3" r="0.59"/><circle class="cls-3" cx="404.07" cy="1106.21" r="0.59"/><circle class="cls-3" cx="1440.57" cy="1470.48" r="0.59"/><circle class="cls-3" cx="1545.98" cy="1075.82" r="0.59"/><circle class="cls-3" cx="1935.22" cy="1522.83" r="0.61"/><circle class="cls-3" cx="455.38" cy="1800.11" r="0.61"/><circle class="cls-3" cx="2847.19" cy="1944.43" r="0.61"/><circle class="cls-3" cx="1873.35" cy="1454.84" r="0.61"/><circle class="cls-3" cx="420.83" cy="257.97" r="0.61"/><circle class="cls-3" cx="2641.09" cy="1295.17" r="0.61"/><circle class="cls-3" cx="900.47" cy="1268.3" r="0.61"/><circle class="cls-3" cx="2868.94" cy="337.16" r="0.61"/><circle class="cls-3" cx="93.07" cy="1058.18" r="0.61"/><circle class="cls-3" cx="1175.12" cy="1133.65" r="0.61"/><circle class="cls-3" cx="1975.29" cy="1137.57" r="0.61"/><circle class="cls-3" cx="1706.13" cy="1587.74" r="0.61"/><circle class="cls-3" cx="830.15" cy="170.06" r="0.61"/><circle class="cls-3" cx="2240.57" cy="829.39" r="0.61"/><circle class="cls-3" cx="972.83" cy="662.28" r="0.61"/><circle class="cls-3" cx="718.94" cy="1920.83" r="0.61"/><circle class="cls-3" cx="2541.77" cy="957.82" r="0.61"/><circle class="cls-3" cx="1162.56" cy="1815.9" r="0.61"/><circle class="cls-3" cx="2825.55" cy="1997.3" r="0.61"/><circle class="cls-3" cx="193.37" cy="1849.94" r="0.61"/><circle class="cls-3" cx="2053.22" cy="882.26" r="0.61"/><circle class="cls-3" cx="591.01" cy="206.48" r="0.61"/><circle class="cls-3" cx="2343.52" cy="1937.55" r="0.61"/><circle class="cls-3" cx="2112.17" cy="378.34" r="0.61"/><circle class="cls-3" cx="2386.46" cy="1714.33" r="0.61"/><circle class="cls-3" cx="1465.21" cy="1456.3" r="0.61"/><circle class="cls-3" cx="801.53" cy="1648.34" r="0.61"/><circle class="cls-3" cx="307.72" cy="1735.59" r="0.61"/><circle class="cls-3" cx="1782.72" cy="1482.89" r="0.61"/><circle class="cls-3" cx="1899.23" cy="1782.46" r="0.61"/><circle class="cls-3" cx="662.44" cy="355.85" r="0.61"/><circle class="cls-3" cx="531.74" cy="438.78" r="0.61"/><circle class="cls-3" cx="215.47" cy="561.46" r="0.61"/><circle class="cls-3" cx="1682.82" cy="348.57" r="0.61"/><circle class="cls-3" cx="1171.95" cy="1319.24" r="0.61"/><circle class="cls-3" cx="1501.07" cy="238.89" r="0.61"/><circle class="cls-3" cx="1578.2" cy="968.57" r="0.61"/><circle class="cls-3" cx="94.83" cy="583.93" r="0.61"/><circle class="cls-3" cx="1906.42" cy="1737.58" r="0.64"/><circle class="cls-3" cx="592.87" cy="933.04" r="0.64"/><circle class="cls-3" cx="203.01" cy="717.21" r="0.64"/><circle class="cls-3" cx="1371.82" cy="1321.79" r="0.64"/><circle class="cls-3" cx="1480.01" cy="1158.49" r="0.64"/><circle class="cls-3" cx="139.83" cy="1775.18" r="0.64"/><circle class="cls-3" cx="1879.77" cy="1868.49" r="0.64"/><circle class="cls-3" cx="481.95" cy="56.43" r="0.64"/><circle class="cls-3" cx="1918.98" cy="1751.21" r="0.64"/><circle class="cls-3" cx="885.87" cy="185.08" r="0.64"/><circle class="cls-3" cx="1890.59" cy="1545.55" r="0.64"/><circle class="cls-3" cx="640.73" cy="1002.96" r="0.64"/><circle class="cls-3" cx="2701.25" cy="834.39" r="0.64"/><circle class="cls-3" cx="340.32" cy="920.07" r="0.64"/><circle class="cls-3" cx="690.54" cy="1294.95" r="0.64"/><circle class="cls-3" cx="1525.56" cy="837.14" r="0.64"/><circle class="cls-3" cx="391.07" cy="625.22" r="0.64"/><circle class="cls-3" cx="2447.59" cy="1325.57" r="0.64"/><circle class="cls-3" cx="411.82" cy="1983.12" r="0.64"/><circle class="cls-3" cx="598.51" cy="1204.63" r="0.64"/><circle class="cls-3" cx="2806.91" cy="854.62" r="0.64"/><circle class="cls-3" cx="1773.48" cy="394.06" r="0.64"/><circle class="cls-3" cx="1203.27" cy="783.02" r="0.64"/><circle class="cls-3" cx="2454.18" cy="1714.58" r="0.64"/><circle class="cls-3" cx="2571.16" cy="712.73" r="0.67"/><circle class="cls-3" cx="2265.84" cy="1460.93" r="0.67"/><circle class="cls-3" cx="1010.41" cy="245.09" r="0.67"/><circle class="cls-3" cx="301.21" cy="606.7" r="0.67"/><circle class="cls-3" cx="632.37" cy="62.68" r="0.67"/><circle class="cls-3" cx="1351.64" cy="1515.76" r="0.67"/><circle class="cls-3" cx="1293.53" cy="824.92" r="0.67"/><circle class="cls-3" cx="57.33" cy="1437.83" r="0.67"/><circle class="cls-3" cx="753.75" cy="830.97" r="0.67"/><circle class="cls-3" cx="1525.33" cy="1544.8" r="0.67"/><circle class="cls-3" cx="145.33" cy="1249.18" r="0.67"/><circle class="cls-3" cx="2335.43" cy="1467.69" r="0.67"/><circle class="cls-3" cx="1157.83" cy="1624.69" r="0.67"/><circle class="cls-3" cx="2794.76" cy="863.73" r="0.67"/><circle class="cls-3" cx="1372.13" cy="1084.01" r="0.67"/><circle class="cls-3" cx="2475.79" cy="676.35" r="0.67"/><circle class="cls-3" cx="957.89" cy="1305.62" r="0.67"/><circle class="cls-3" cx="530.52" cy="435.57" r="0.67"/><circle class="cls-3" cx="2615.61" cy="1207.99" r="0.67"/><circle class="cls-3" cx="2016.71" cy="1307.52" r="0.7"/><circle class="cls-3" cx="2138.15" cy="80.36" r="0.7"/><circle class="cls-3" cx="2150.3" cy="568.24" r="0.7"/><circle class="cls-3" cx="1243.66" cy="639.35" r="0.7"/><circle class="cls-3" cx="901.13" cy="1211.57" r="0.7"/><circle class="cls-3" cx="2656.54" cy="559.87" r="0.7"/><circle class="cls-3" cx="1509.36" cy="980.85" r="0.7"/><circle class="cls-3" cx="2107.24" cy="1221.35" r="0.7"/><circle class="cls-3" cx="2012.39" cy="719.8" r="0.7"/><circle class="cls-3" cx="2106.06" cy="1743.58" r="0.7"/><circle class="cls-3" cx="676.53" cy="87.66" r="0.7"/><circle class="cls-3" cx="2916.27" cy="1492.16" r="0.7"/><circle class="cls-3" cx="1130.08" cy="1299.14" r="0.7"/><circle class="cls-3" cx="1703.05" cy="1275.84" r="0.7"/><circle class="cls-3" cx="2560.63" cy="1959.24" r="0.7"/><circle class="cls-3" cx="1292.63" cy="803.56" r="0.7"/><circle class="cls-3" cx="355.83" cy="953.27" r="0.7"/><circle class="cls-3" cx="984.94" cy="757.34" r="0.7"/><circle class="cls-3" cx="1935.59" cy="1960.35" r="0.7"/><circle class="cls-3" cx="146.93" cy="1042.84" r="0.7"/><circle class="cls-3" cx="114.53" cy="1303.33" r="0.7"/><circle class="cls-3" cx="136.61" cy="1221.96" r="0.7"/><circle class="cls-3" cx="1811.44" cy="547.68" r="0.73"/><circle class="cls-3" cx="2332.36" cy="1442.35" r="0.73"/><circle class="cls-3" cx="1475.68" cy="1216.13" r="0.73"/><circle class="cls-3" cx="2572.55" cy="1337.52" r="0.73"/><circle class="cls-3" cx="112.81" cy="416.77" r="0.73"/><circle class="cls-3" cx="1566.76" cy="934.5" r="0.73"/><circle class="cls-3" cx="2388.18" cy="682.94" r="0.73"/><circle class="cls-3" cx="1715.98" cy="1888.86" r="0.73"/><circle class="cls-3" cx="656.8" cy="19.43" r="0.73"/><circle class="cls-3" cx="2744.12" cy="735.96" r="0.73"/><circle class="cls-3" cx="644.79" cy="1318.7" r="0.73"/><circle class="cls-3" cx="538.79" cy="817.75" r="0.73"/><circle class="cls-3" cx="1759.28" cy="480.09" r="0.73"/><circle class="cls-3" cx="1825.76" cy="1640.42" r="0.73"/><circle class="cls-3" cx="487.45" cy="1132.1" r="0.73"/><circle class="cls-3" cx="937.65" cy="259.1" r="0.73"/><circle class="cls-3" cx="92.16" cy="1223.42" r="0.73"/><circle class="cls-3" cx="2556.6" cy="1812.36" r="0.73"/><circle class="cls-3" cx="959.91" cy="810.21" r="0.73"/><circle class="cls-3" cx="678.98" cy="1155.88" r="0.73"/><circle class="cls-3" cx="708.42" cy="169.65" r="0.73"/><circle class="cls-3" cx="650.89" cy="21.4" r="0.77"/><circle class="cls-3" cx="2524.06" cy="1469.6" r="0.77"/><circle class="cls-3" cx="1957.21" cy="566.27" r="0.77"/><circle class="cls-3" cx="1895.9" cy="1832.47" r="0.77"/><circle class="cls-3" cx="1962.67" cy="42.41" r="0.77"/><circle class="cls-3" cx="733.31" cy="449.56" r="0.77"/><circle class="cls-3" cx="2531.52" cy="977.29" r="0.77"/><circle class="cls-3" cx="1889.99" cy="1088.03" r="0.77"/><circle class="cls-3" cx="1980.65" cy="1664.69" r="0.77"/><circle class="cls-3" cx="2359.6" cy="1031.4" r="0.77"/><circle class="cls-3" cx="2907.43" cy="925.31" r="0.77"/><circle class="cls-3" cx="1821.21" cy="885.46" r="0.77"/><circle class="cls-3" cx="1670.04" cy="1521.91" r="0.77"/><circle class="cls-3" cx="1145.81" cy="315.78" r="0.77"/><circle class="cls-3" cx="1498.25" cy="1492.25" r="0.77"/><circle class="cls-3" cx="1787.95" cy="1250.83" r="0.77"/><circle class="cls-3" cx="1493.85" cy="1836.03" r="0.77"/><circle class="cls-3" cx="2295.76" cy="1738.1" r="0.77"/><circle class="cls-3" cx="2544.81" cy="1704.08" r="0.77"/><circle class="cls-3" cx="2165.06" cy="325.16" r="0.77"/><circle class="cls-3" cx="326.74" cy="228.95" r="0.77"/><circle class="cls-3" cx="124.87" cy="47.66" r="0.77"/><circle class="cls-3" cx="1482.97" cy="382.27" r="0.8"/><circle class="cls-3" cx="692.06" cy="1202.64" r="0.8"/><circle class="cls-3" cx="1657.06" cy="584.57" r="0.8"/><circle class="cls-3" cx="382.67" cy="1856.32" r="0.8"/><circle class="cls-3" cx="592.08" cy="514.49" r="0.8"/><circle class="cls-3" cx="1958.45" cy="764.49" r="0.8"/><circle class="cls-3" cx="1605.64" cy="272.25" r="0.8"/><circle class="cls-3" cx="923.94" cy="1071.47" r="0.8"/><circle class="cls-3" cx="212.05" cy="684.45" r="0.8"/><circle class="cls-3" cx="1748.04" cy="1694.01" r="0.8"/><circle class="cls-3" cx="136.54" cy="1221.97" r="0.8"/><circle class="cls-3" cx="128.16" cy="178.53" r="0.8"/><circle class="cls-3" cx="1076.04" cy="1612.1" r="0.8"/><circle class="cls-3" cx="1204.01" cy="1276.52" r="0.8"/><circle class="cls-3" cx="1239.35" cy="153.39" r="0.8"/><circle class="cls-3" cx="875.63" cy="636.42" r="0.8"/><circle class="cls-3" cx="1451.77" cy="11.64" r="0.8"/><circle class="cls-3" cx="2724.11" cy="453.18" r="0.8"/><circle class="cls-3" cx="665.99" cy="248.83" r="0.8"/><circle class="cls-3" cx="1171.55" cy="286.12" r="0.8"/><circle class="cls-3" cx="2227.04" cy="184.56" r="0.84"/><circle class="cls-3" cx="2518.99" cy="1398.34" r="0.84"/><circle class="cls-3" cx="896.61" cy="1601.74" r="0.84"/><circle class="cls-3" cx="1877.11" cy="1977.82" r="0.84"/><circle class="cls-3" cx="2896.9" cy="1904.65" r="0.84"/><circle class="cls-3" cx="1729.11" cy="1954.25" r="0.84"/><circle class="cls-3" cx="1571.44" cy="1483.83" r="0.84"/><circle class="cls-3" cx="2634.76" cy="806.78" r="0.84"/><circle class="cls-3" cx="1881.05" cy="1570.27" r="0.84"/><circle class="cls-3" cx="503.94" cy="1713.35" r="0.84"/><circle class="cls-3" cx="978.38" cy="629.42" r="0.84"/><circle class="cls-3" cx="2744.76" cy="828.21" r="0.84"/><circle class="cls-3" cx="550.01" cy="303.36" r="0.84"/><circle class="cls-3" cx="2790.15" cy="1385.97" r="0.84"/><circle class="cls-3" cx="2398.5" cy="567.38" r="0.84"/><circle class="cls-3" cx="2212.9" cy="1955.1" r="0.84"/><circle class="cls-3" cx="1938.36" cy="1769.53" r="0.84"/><circle class="cls-3" cx="374.66" cy="5.22" r="0.84"/><circle class="cls-3" cx="243.48" cy="1360.22" r="0.88"/><circle class="cls-3" cx="1362.9" cy="374.04" r="0.88"/><circle class="cls-3" cx="2221.72" cy="1933.33" r="0.88"/><circle class="cls-3" cx="1218.2" cy="148.2" r="0.88"/><circle class="cls-3" cx="2796.41" cy="325.31" r="0.88"/><circle class="cls-3" cx="359.79" cy="1629.32" r="0.88"/><circle class="cls-3" cx="1288.52" cy="1712.03" r="0.88"/><circle class="cls-3" cx="1367.76" cy="1534.9" r="0.88"/><circle class="cls-3" cx="1962.7" cy="1766.83" r="0.88"/><circle class="cls-3" cx="685.51" cy="1932" r="0.88"/><circle class="cls-3" cx="129.74" cy="556.72" r="0.88"/><circle class="cls-3" cx="1723" cy="1295.85" r="0.88"/><circle class="cls-3" cx="1445.07" cy="393.06" r="0.88"/><circle class="cls-3" cx="507.47" cy="67.8" r="0.88"/><circle class="cls-3" cx="934.57" cy="1915.11" r="0.88"/><circle class="cls-3" cx="881.17" cy="492.5" r="0.88"/><circle class="cls-3" cx="2399.51" cy="1982.05" r="0.92"/><circle class="cls-3" cx="1760.38" cy="1880.39" r="0.92"/><circle class="cls-3" cx="916.27" cy="971.48" r="0.92"/><circle class="cls-3" cx="2057.57" cy="1423.92" r="0.92"/><circle class="cls-3" cx="1893.74" cy="1929.72" r="0.92"/><circle class="cls-3" cx="1539.64" cy="448.82" r="0.92"/><circle class="cls-3" cx="2867.26" cy="1926.1" r="0.92"/><circle class="cls-3" cx="935.66" cy="1774.59" r="0.92"/><circle class="cls-3" cx="94.83" cy="583.97" r="0.92"/><circle class="cls-3" cx="2247.11" cy="996.54" r="0.92"/><circle class="cls-3" cx="1115.17" cy="250.31" r="0.92"/><circle class="cls-3" cx="2368.07" cy="1920.97" r="0.92"/><circle class="cls-3" cx="2820.34" cy="1412.13" r="0.92"/><circle class="cls-3" cx="94.84" cy="583.96" r="0.92"/><circle class="cls-3" cx="1062.51" cy="614.37" r="0.92"/><circle class="cls-3" cx="1764.45" cy="63.32" r="0.96"/><circle class="cls-3" cx="1646.38" cy="1797.81" r="0.96"/><circle class="cls-3" cx="1826.48" cy="967" r="0.96"/><circle class="cls-3" cx="1210.19" cy="29.98" r="0.96"/><circle class="cls-3" cx="1539.64" cy="448.82" r="0.96"/><circle class="cls-3" cx="1633.31" cy="1875.49" r="0.96"/><circle class="cls-3" cx="1539.64" cy="448.82" r="0.96"/><circle class="cls-3" cx="562.17" cy="1805.36" r="0.96"/><circle class="cls-3" cx="1289.02" cy="939.89" r="0.96"/><circle class="cls-3" cx="2359.81" cy="1529.52" r="0.96"/><circle class="cls-3" cx="1658.28" cy="841.54" r="0.96"/><circle class="cls-3" cx="259.61" cy="949.68" r="1"/><circle class="cls-3" cx="2528.48" cy="428.23" r="1"/><circle class="cls-3" cx="2763.86" cy="1737.52" r="1"/><circle class="cls-3" cx="2870.4" cy="1931.26" r="1"/><circle class="cls-3" cx="817.2" cy="1212.62" r="1"/><circle class="cls-3" cx="2247.46" cy="1717.05" r="1"/><circle class="cls-3" cx="100.19" cy="1279.15" r="1"/><circle class="cls-3" cx="734.21" cy="1536.92" r="1"/><circle class="cls-3" cx="2898.38" cy="1721.9" r="1"/><circle class="cls-3" cx="1149.6" cy="1935.5" r="1"/><circle class="cls-3" cx="1571.43" cy="1483.83" r="1"/><circle class="cls-3" cx="1760.46" cy="1730.32" r="1"/><circle class="cls-3" cx="770.17" cy="82.48" r="1"/><circle class="cls-3" cx="2691.21" cy="1975.49" r="1"/><circle class="cls-3" cx="1528.74" cy="1752.26" r="1.05"/><circle class="cls-3" cx="2864.57" cy="1446.55" r="1.05"/><circle class="cls-3" cx="1593.94" cy="1774.95" r="1.05"/><circle class="cls-3" cx="2041.06" cy="530.08" r="1.05"/><circle class="cls-3" cx="2860.47" cy="1387.88" r="1.05"/><circle class="cls-3" cx="368.29" cy="61.01" r="1.05"/><circle class="cls-3" cx="284.84" cy="233.33" r="1.1"/><circle class="cls-3" cx="2221.72" cy="885.71" r="1.1"/><circle class="cls-3" cx="860.64" cy="278.04" r="1.1"/><circle class="cls-3" cx="1292.62" cy="803.52" r="1.1"/><circle class="cls-3" cx="1130.08" cy="1299.14" r="1.1"/><circle class="cls-3" cx="818.09" cy="509.41" r="1.1"/><circle class="cls-3" cx="1748.25" cy="1558.83" r="1.1"/><circle class="cls-3" cx="509.96" cy="1793.6" r="1.1"/><circle class="cls-3" cx="1702.82" cy="1719.89" r="1.1"/><circle class="cls-3" cx="1052.3" cy="687.77" r="1.15"/><circle class="cls-3" cx="2112.86" cy="793.94" r="1.15"/><circle class="cls-3" cx="2552.12" cy="1697.76" r="1.15"/><circle class="cls-3" cx="1791.37" cy="115.73" r="1.15"/><circle class="cls-3" cx="2744.38" cy="1678.48" r="1.15"/><circle class="cls-3" cx="2618.13" cy="1765.35" r="1.2"/><circle class="cls-3" cx="533.21" cy="1754.85" r="1.2"/><circle class="cls-3" cx="1759.44" cy="1722.31" r="1.2"/><circle class="cls-3" cx="2143.04" cy="1966.88" r="1.2"/><circle class="cls-3" cx="1814.28" cy="1417.57" r="1.2"/><circle class="cls-3" cx="361.27" cy="678.51" r="1.25"/><circle class="cls-3" cx="2760.46" cy="0.26" r="1.25"/><circle class="cls-3" cx="1939.36" cy="925.91" r="1.25"/><circle class="cls-3" cx="280.69" cy="61.57" r="1.25"/><circle class="cls-3" cx="2008.34" cy="1883.55" r="1.25"/><circle class="cls-3" cx="1058" cy="787.57" r="1.25"/><circle class="cls-3" cx="915.5" cy="454.05" r="1.25"/><circle class="cls-3" cx="1292.61" cy="803.51" r="1.25"/><circle class="cls-3" cx="2963.44" cy="1721.81" r="1.31"/><circle class="cls-3" cx="833.3" cy="823.99" r="1.31"/><circle class="cls-3" cx="624.26" cy="1690.4" r="1.31"/><circle class="cls-3" cx="341.66" cy="1605.83" r="1.31"/><circle class="cls-3" cx="1762.4" cy="759.32" r="1.31"/><circle class="cls-3" cx="1321.94" cy="1031.73" r="1.37"/><circle class="cls-3" cx="16.3" cy="967.49" r="1.37"/><circle class="cls-3" cx="2627.08" cy="154.55" r="1.37"/><circle class="cls-3" cx="2122.11" cy="1807.66" r="1.37"/><circle class="cls-3" cx="1123.84" cy="742.2" r="1.37"/><circle class="cls-3" cx="938.38" cy="311.28" r="1.37"/><circle class="cls-3" cx="2094.49" cy="1757.61" r="1.37"/><circle class="cls-3" cx="2361.82" cy="1898.6" r="1.43"/><circle class="cls-3" cx="1492.55" cy="1215.81" r="1.43"/><circle class="cls-3" cx="2922.68" cy="1927.75" r="1.43"/><circle class="cls-3" cx="306.69" cy="372.86" r="1.5"/><circle class="cls-3" cx="910.9" cy="145.34" r="1.5"/><circle class="cls-3" cx="2417.51" cy="107.6" r="1.5"/><circle class="cls-3" cx="122.95" cy="968.45" r="1.5"/><circle class="cls-3" cx="2256.91" cy="435.84" r="1.57"/><circle class="cls-3" cx="598.54" cy="1204.59" r="1.57"/><circle class="cls-3" cx="2221.91" cy="1524.28" r="1.64"/><circle class="cls-3" cx="2600.71" cy="1292.13" r="1.64"/><circle class="cls-3" cx="1346.46" cy="1395.79" r="1.64"/><circle class="cls-3" cx="810.28" cy="1251.44" r="1.71"/><circle class="cls-3" cx="155.26" cy="561.77" r="1.71"/><circle class="cls-3" cx="387.36" cy="917.37" r="1.71"/><circle class="cls-3" cx="2617.41" cy="1963.13" r="1.79"/><circle class="cls-3" cx="2840.44" cy="972.82" r="1.79"/><circle class="cls-3" cx="1790.3" cy="1918.26" r="1.87"/><circle class="cls-3" cx="1926.66" cy="1815.75" r="1.96"/><circle class="cls-3" cx="463.82" cy="578.39" r="1.96"/><circle class="cls-3" cx="735.31" cy="802.94" r="2.05"/><circle class="cls-3" cx="613.18" cy="1616.5" r="2.05"/><circle class="cls-3" cx="2627.03" cy="154.6" r="2.05"/><circle class="cls-3" cx="1349.44" cy="1350.81" r="2.05"/><circle class="cls-3" cx="2107.01" cy="1223.43" r="2.05"/><circle class="cls-3" cx="1218.22" cy="148.23" r="2.05"/><circle class="cls-3" cx="1699.7" cy="83.14" r="2.14"/><circle class="cls-3" cx="1321.12" cy="951.17" r="2.14"/><circle class="cls-3" cx="2644.1" cy="1990.67" r="2.14"/><circle class="cls-3" cx="1748.15" cy="1694.07" r="2.14"/><circle class="cls-3" cx="1811.42" cy="1191.17" r="2.14"/><circle class="cls-3" cx="1359.46" cy="1638.13" r="2.24"/><circle class="cls-3" cx="1218.21" cy="148.23" r="2.34"/><circle class="cls-3" cx="1279.35" cy="1946.74" r="2.34"/><circle class="cls-3" cx="2748.89" cy="1867.79" r="2.45"/><circle class="cls-3" cx="1839.84" cy="1736.77" r="2.45"/><circle class="cls-3" cx="952.15" cy="404.74" r="2.56"/><circle class="cls-3" cx="501.87" cy="1355.12" r="2.8"/><circle class="cls-3" cx="2796.32" cy="1575.86" r="2.8"/><circle class="cls-3" cx="1764.63" cy="1982.28" r="4.37"/><circle class="cls-3" cx="2548.54" cy="662.58" r="4.37"/><circle class="cls-3" cx="1562.72" cy="181.25" r="5"/></g></g></svg>