<svg id="Layer_1" data-name="Layer 1" xmlns="http://www.w3.org/2000/svg" xmlns:xlink="http://www.w3.org/1999/xlink" viewBox="0 0 2949.48 1964.16"><defs><style>.cls-1{fill:none;}.cls-2{clip-path:url(#clip-path);}.cls-3{fill:#fff;}</style><clipPath id="clip-path" transform="translate(-14.77 -29.14)"><rect class="cls-1" x="-2.58" y="1.93" width="3000" height="2000"/></clipPath></defs><g id="Bright"><g class="cls-2"><circle class="cls-3" cx="1749.08" cy="34.11" r="0.96"/><circle class="cls-3" cx="1631.01" cy="1768.76" r="0.96"/><circle class="cls-3" cx="1811.23" cy="937.99" r="0.96"/><circle class="cls-3" cx="1194.67" cy="0.96" r="0.96"/><circle class="cls-3" cx="1524.3" cy="419.76" r="0.96"/><circle class="cls-3" cx="1617.93" cy="1846.42" r="0.96"/><circle class="cls-3" cx="1524.31" cy="419.76" r="0.96"/><circle class="cls-3" cx="547.18" cy="1776.19" r="0.96"/><circle class="cls-3" cx="1273.75" cy="910.9" r="0.96"/><circle class="cls-3" cx="2344.52" cy="1500.69" r="0.96"/><circle class="cls-3" cx="1643.01" cy="812.52" r="0.96"/><circle class="cls-3" cx="244.56" cy="920.95" r="1"/><circle class="cls-3" cx="2513.47" cy="399.1" r="1"/><circle class="cls-3" cx="2748.53" cy="1708.9" r="1"/><circle class="cls-3" cx="2854.99" cy="1902.74" r="1"/><circle class="cls-3" cx="802.05" cy="1183.66" r="1"/><circle class="cls-3" cx="2232.09" cy="1688.2" r="1"/><circle class="cls-3" cx="85.34" cy="1250.34" r="1"/><circle class="cls-3" cx="719.12" cy="1507.86" r="1"/><circle class="cls-3" cx="2883.1" cy="1693.36" r="1"/><circle class="cls-3" cx="1134.34" cy="1906.3" r="1"/><circle class="cls-3" cx="1556.14" cy="1454.8" r="1"/><circle class="cls-3" cx="1745.1" cy="1701.3" r="1"/><circle class="cls-3" cx="754.64" cy="53.67" r="1"/><circle class="cls-3" cx="2675.74" cy="1946.87" r="1"/><circle class="cls-3" cx="1513.41" cy="1723.19" r="1.05"/><circle class="cls-3" cx="2849.42" cy="1417.91" r="1.05"/><circle class="cls-3" cx="1578.59" cy="1745.88" r="1.05"/><circle class="cls-3" cx="2025.85" cy="500.98" r="1.05"/><circle class="cls-3" cx="2845.34" cy="1359.22" r="1.05"/><circle class="cls-3" cx="352.76" cy="32.44" r="1.05"/><circle class="cls-3" cx="269.43" cy="204.8" r="1.1"/><circle class="cls-3" cx="2206.55" cy="856.72" r="1.1"/><circle class="cls-3" cx="845.19" cy="249.19" r="1.1"/><circle class="cls-3" cx="1277.34" cy="774.54" r="1.1"/><circle class="cls-3" cx="1114.86" cy="1270.13" r="1.1"/><circle class="cls-3" cx="802.74" cy="480.57" r="1.1"/><circle class="cls-3" cx="1732.93" cy="1529.83" r="1.1"/><path class="cls-3" d="M509.77,1792.47a1.1,1.1,0,1,1-1.1,1.1A1.1,1.1,0,0,1,509.77,1792.47Z" transform="translate(-14.77 -29.14)"/><circle class="cls-3" cx="1687.46" cy="1690.85" r="1.1"/><circle class="cls-3" cx="1037" cy="658.85" r="1.15"/><circle class="cls-3" cx="2097.67" cy="764.91" r="1.15"/><circle class="cls-3" cx="2536.78" cy="1669.03" r="1.15"/><circle class="cls-3" cx="1776.02" cy="86.53" r="1.15"/><circle class="cls-3" cx="2729.08" cy="1649.84" r="1.15"/><circle class="cls-3" cx="2602.76" cy="1736.66" r="1.2"/><circle class="cls-3" cx="518.23" cy="1725.71" r="1.2"/><circle class="cls-3" cx="1744.08" cy="1693.29" r="1.2"/><circle class="cls-3" cx="2127.56" cy="1937.98" r="1.2"/><circle class="cls-3" cx="1798.98" cy="1388.58" r="1.2"/><circle class="cls-3" cx="346.08" cy="649.83" r="1.25"/><circle class="cls-3" cx="1924.13" cy="896.9" r="1.25"/><circle class="cls-3" cx="265.16" cy="33.06" r="1.25"/><circle class="cls-3" cx="1992.91" cy="1854.59" r="1.25"/><circle class="cls-3" cx="1042.72" cy="758.64" r="1.25"/><circle class="cls-3" cx="900.13" cy="425.17" r="1.25"/><circle class="cls-3" cx="1277.33" cy="774.53" r="1.25"/><circle class="cls-3" cx="2948.17" cy="1693.3" r="1.31"/><circle class="cls-3" cx="818.06" cy="795.1" r="1.31"/><circle class="cls-3" cx="609.23" cy="1661.28" r="1.31"/><circle class="cls-3" cx="326.76" cy="1576.78" r="1.31"/><circle class="cls-3" cx="1747.14" cy="730.28" r="1.31"/><circle class="cls-3" cx="1306.68" cy="1002.73" r="1.37"/><circle class="cls-3" cx="1.37" cy="938.86" r="1.37"/><circle class="cls-3" cx="2612.12" cy="125.28" r="1.37"/><circle class="cls-3" cx="2106.7" cy="1778.76" r="1.37"/><circle class="cls-3" cx="1108.55" cy="713.25" r="1.37"/><circle class="cls-3" cx="922.95" cy="282.4" r="1.37"/><circle class="cls-3" cx="2079.09" cy="1728.69" r="1.37"/><circle class="cls-3" cx="2346.37" cy="1869.79" r="1.43"/><circle class="cls-3" cx="1477.28" cy="1186.8" r="1.43"/><circle class="cls-3" cx="2907.27" cy="1899.26" r="1.43"/><circle class="cls-3" cx="291.35" cy="344.28" r="1.5"/><circle class="cls-3" cx="895.4" cy="116.46" r="1.5"/><circle class="cls-3" cx="2402.44" cy="78.31" r="1.5"/><circle class="cls-3" cx="107.97" cy="939.78" r="1.5"/><circle class="cls-3" cx="2241.78" cy="406.7" r="1.57"/><circle class="cls-3" cx="583.45" cy="1175.67" r="1.57"/><circle class="cls-3" cx="2206.6" cy="1495.4" r="1.64"/><circle class="cls-3" cx="2585.54" cy="1263.34" r="1.64"/><circle class="cls-3" cx="1331.2" cy="1366.76" r="1.64"/><circle class="cls-3" cx="795.13" cy="1222.47" r="1.71"/><circle class="cls-3" cx="140.07" cy="533.23" r="1.71"/><circle class="cls-3" cx="372.26" cy="888.6" r="1.71"/><circle class="cls-3" cx="2601.94" cy="1934.46" r="1.79"/><circle class="cls-3" cx="2825.46" cy="943.99" r="1.79"/><circle class="cls-3" cx="1774.88" cy="1889.23" r="1.87"/><circle class="cls-3" cx="1911.26" cy="1786.77" r="1.96"/><circle class="cls-3" cx="448.56" cy="549.69" r="1.96"/><circle class="cls-3" cx="720.07" cy="774.09" r="2.05"/><circle class="cls-3" cx="598.15" cy="1587.42" r="2.05"/><circle class="cls-3" cx="2612.08" cy="125.32" r="2.05"/><circle class="cls-3" cx="1334.19" cy="1321.79" r="2.05"/><circle class="cls-3" cx="2091.76" cy="1194.49" r="2.05"/><circle class="cls-3" cx="1202.75" cy="119.23" r="2.05"/><circle class="cls-3" cx="1684.32" cy="53.96" r="2.14"/><circle class="cls-3" cx="1305.85" cy="922.18" r="2.14"/><circle class="cls-3" cx="2628.62" cy="1962.02" r="2.14"/><circle class="cls-3" cx="1732.8" cy="1665.05" r="2.14"/><circle class="cls-3" cx="1796.15" cy="1162.18" r="2.14"/><circle class="cls-3" cx="1344.18" cy="1609.05" r="2.24"/><circle class="cls-3" cx="1202.74" cy="119.23" r="2.34"/><circle class="cls-3" cx="1264.04" cy="1917.57" r="2.34"/><circle class="cls-3" cx="2733.49" cy="1839.19" r="2.45"/><circle class="cls-3" cx="1824.46" cy="1707.77" r="2.45"/><circle class="cls-3" cx="936.76" cy="375.86" r="2.56"/><circle class="cls-3" cx="486.85" cy="1326.16" r="2.8"/><circle class="cls-3" cx="2781.09" cy="1547.23" r="2.8"/><circle class="cls-3" cx="1749.19" cy="1953.22" r="4.37"/><circle class="cls-3" cx="2533.51" cy="633.56" r="4.37"/><circle class="cls-3" cx="1547.32" cy="152.14" r="5"/></g></g></svg>