<?xml version="1.0" encoding="utf-8"?>
<!-- Generator: Adobe Illustrator 24.1.2, SVG Export Plug-In . SVG Version: 6.00 Build 0)  -->
<svg version="1.1" xmlns="http://www.w3.org/2000/svg" xmlns:xlink="http://www.w3.org/1999/xlink" x="0px" y="0px"
	 viewBox="0 0 3000 2000" style="enable-background:new 0 0 3000 2000;" xml:space="preserve">
<style type="text/css">
	.st0{display:none;}
	.st1{display:inline;}
	.st2{clip-path:url(#SVGID_2_);}
	.st3{fill:#FFFFFF;}
	.st4{clip-path:url(#SVGID_4_);}
</style>
<g id="Background" class="st0">
	<rect class="st1" width="3000" height="2000"/>
</g>
<g id="Layer_1">
	<g id="Intermediate">
		<defs>
			<rect id="SVGID_1_" width="3000" height="2000"/>
		</defs>
		<clipPath id="SVGID_2_">
			<use xlink:href="#SVGID_1_"  style="overflow:visible;"/>
		</clipPath>
		<g class="st2">
			<circle class="st3" cx="267.8" cy="1815.4" r="0.6"/>
			<circle class="st3" cx="248.4" cy="1192.6" r="0.6"/>
			<circle class="st3" cx="2859.1" cy="1199.9" r="0.6"/>
			<circle class="st3" cx="1177" cy="476.8" r="0.6"/>
			<circle class="st3" cx="2339.7" cy="1417.4" r="0.6"/>
			<circle class="st3" cx="2279.5" cy="294.2" r="0.6"/>
			<circle class="st3" cx="285.1" cy="818.3" r="0.6"/>
			<circle class="st3" cx="433.8" cy="1244.6" r="0.6"/>
			<circle class="st3" cx="465.4" cy="1801.5" r="0.6"/>
			<circle class="st3" cx="1107.9" cy="286" r="0.6"/>
			<circle class="st3" cx="231.7" cy="128.1" r="0.6"/>
			<circle class="st3" cx="1490.7" cy="1695" r="0.6"/>
			<circle class="st3" cx="243.8" cy="1748.6" r="0.6"/>
			<circle class="st3" cx="2855.1" cy="1835.3" r="0.6"/>
			<circle class="st3" cx="521.2" cy="915.5" r="0.6"/>
			<circle class="st3" cx="1791.5" cy="783.8" r="0.6"/>
			<circle class="st3" cx="376.7" cy="1160.4" r="0.6"/>
			<circle class="st3" cx="2587.9" cy="1713.6" r="0.6"/>
			<circle class="st3" cx="2029.1" cy="119.3" r="0.6"/>
			<circle class="st3" cx="2105.5" cy="19.6" r="0.6"/>
			<circle class="st3" cx="208.1" cy="885.8" r="0.6"/>
			<circle class="st3" cx="1897.9" cy="1427.8" r="0.6"/>
			<circle class="st3" cx="757.9" cy="1025.6" r="0.6"/>
			<circle class="st3" cx="314.4" cy="1270.3" r="0.6"/>
			<circle class="st3" cx="1109.3" cy="985.7" r="0.6"/>
			<circle class="st3" cx="161.5" cy="798.6" r="0.6"/>
			<circle class="st3" cx="976.1" cy="1553.2" r="0.6"/>
			<circle class="st3" cx="1948.9" cy="1802.5" r="0.6"/>
			<circle class="st3" cx="1616.6" cy="949.8" r="0.6"/>
			<circle class="st3" cx="159.4" cy="1169.9" r="0.6"/>
			<circle class="st3" cx="535.6" cy="317.3" r="0.6"/>
			<circle class="st3" cx="2861" cy="1776" r="0.6"/>
			<circle class="st3" cx="1046.4" cy="1220.6" r="0.6"/>
			<circle class="st3" cx="907.2" cy="1830" r="0.6"/>
			<circle class="st3" cx="2327.9" cy="1453.7" r="0.6"/>
			<path class="st3" d="M602.1,255.4c0.3,0,0.6,0.3,0.6,0.6s-0.3,0.6-0.6,0.6s-0.6-0.3-0.6-0.6S601.8,255.4,602.1,255.4z"/>
			<circle class="st3" cx="2077.2" cy="1168.1" r="0.6"/>
			<circle class="st3" cx="2190.5" cy="1973.8" r="0.6"/>
			<circle class="st3" cx="2946" cy="436.9" r="0.6"/>
			<circle class="st3" cx="1968.5" cy="181.1" r="0.6"/>
			<circle class="st3" cx="733.1" cy="1599.9" r="0.6"/>
			<circle class="st3" cx="774.4" cy="299.5" r="0.6"/>
			<circle class="st3" cx="2526.2" cy="897.5" r="0.6"/>
			<circle class="st3" cx="498.1" cy="955.1" r="0.6"/>
			<circle class="st3" cx="52.3" cy="1959" r="0.6"/>
			<circle class="st3" cx="1334.6" cy="980.5" r="0.6"/>
			<circle class="st3" cx="2614" cy="514.6" r="0.6"/>
			<circle class="st3" cx="210.8" cy="1047.1" r="0.6"/>
			<circle class="st3" cx="53.9" cy="486.4" r="0.6"/>
			<circle class="st3" cx="1542.2" cy="1890.7" r="0.6"/>
			<circle class="st3" cx="2438.6" cy="803.8" r="0.6"/>
			<circle class="st3" cx="573.4" cy="400.7" r="0.6"/>
			<circle class="st3" cx="2669.3" cy="1594.4" r="0.6"/>
			<circle class="st3" cx="1581.3" cy="501.3" r="0.6"/>
			<circle class="st3" cx="384.9" cy="1295.3" r="0.6"/>
			<circle class="st3" cx="728.5" cy="15.8" r="0.6"/>
			<circle class="st3" cx="1712.9" cy="1126.2" r="0.6"/>
			<circle class="st3" cx="1714.1" cy="321.3" r="0.6"/>
			<circle class="st3" cx="2833.5" cy="1996.9" r="0.6"/>
			<circle class="st3" cx="1078.9" cy="822.2" r="0.6"/>
			<circle class="st3" cx="438.5" cy="347" r="0.6"/>
			<circle class="st3" cx="2585.9" cy="817" r="0.6"/>
			<circle class="st3" cx="1027" cy="1976" r="0.6"/>
			<circle class="st3" cx="2370" cy="1103.9" r="0.6"/>
			<circle class="st3" cx="1504.7" cy="1221.7" r="0.6"/>
			<circle class="st3" cx="1768.4" cy="950" r="0.6"/>
			<circle class="st3" cx="1529.9" cy="1393.7" r="0.6"/>
			<circle class="st3" cx="65.8" cy="935" r="0.6"/>
			<circle class="st3" cx="932" cy="37.7" r="0.6"/>
			<circle class="st3" cx="1737.4" cy="868" r="0.6"/>
			<circle class="st3" cx="2088.4" cy="1510.3" r="0.6"/>
			<circle class="st3" cx="1019.5" cy="1425.4" r="0.6"/>
			<circle class="st3" cx="969.4" cy="261.3" r="0.6"/>
			<circle class="st3" cx="404.1" cy="1106.2" r="0.6"/>
			<circle class="st3" cx="1440.6" cy="1470.5" r="0.6"/>
			<circle class="st3" cx="1546" cy="1075.8" r="0.6"/>
			<circle class="st3" cx="1935.2" cy="1522.8" r="0.6"/>
			<circle class="st3" cx="455.4" cy="1800.1" r="0.6"/>
			<circle class="st3" cx="2847.2" cy="1944.4" r="0.6"/>
			<circle class="st3" cx="1873.3" cy="1454.8" r="0.6"/>
			<circle class="st3" cx="420.8" cy="258" r="0.6"/>
			<circle class="st3" cx="2641.1" cy="1295.2" r="0.6"/>
			<circle class="st3" cx="900.5" cy="1268.3" r="0.6"/>
			<circle class="st3" cx="2868.9" cy="337.2" r="0.6"/>
			<circle class="st3" cx="93.1" cy="1058.2" r="0.6"/>
			<circle class="st3" cx="1175.1" cy="1133.7" r="0.6"/>
			<circle class="st3" cx="1975.3" cy="1137.6" r="0.6"/>
			<circle class="st3" cx="1706.1" cy="1587.7" r="0.6"/>
			<circle class="st3" cx="830.2" cy="170.1" r="0.6"/>
			<circle class="st3" cx="2240.6" cy="829.4" r="0.6"/>
			<circle class="st3" cx="972.8" cy="662.3" r="0.6"/>
			<circle class="st3" cx="718.9" cy="1920.8" r="0.6"/>
			<circle class="st3" cx="2541.8" cy="957.8" r="0.6"/>
			<circle class="st3" cx="1162.6" cy="1815.9" r="0.6"/>
			<circle class="st3" cx="2825.6" cy="1997.3" r="0.6"/>
			<circle class="st3" cx="193.4" cy="1849.9" r="0.6"/>
			<circle class="st3" cx="2053.2" cy="882.3" r="0.6"/>
			<circle class="st3" cx="591" cy="206.5" r="0.6"/>
			<circle class="st3" cx="2343.5" cy="1937.6" r="0.6"/>
			<circle class="st3" cx="2112.2" cy="378.3" r="0.6"/>
			<circle class="st3" cx="2386.5" cy="1714.3" r="0.6"/>
			<circle class="st3" cx="1465.2" cy="1456.3" r="0.6"/>
			<circle class="st3" cx="801.5" cy="1648.3" r="0.6"/>
			<circle class="st3" cx="307.7" cy="1735.6" r="0.6"/>
			<circle class="st3" cx="1782.7" cy="1482.9" r="0.6"/>
			<circle class="st3" cx="1899.2" cy="1782.5" r="0.6"/>
			<circle class="st3" cx="662.4" cy="355.9" r="0.6"/>
			<circle class="st3" cx="531.7" cy="438.8" r="0.6"/>
			<circle class="st3" cx="215.5" cy="561.5" r="0.6"/>
			<circle class="st3" cx="1682.8" cy="348.6" r="0.6"/>
			<circle class="st3" cx="1171.9" cy="1319.2" r="0.6"/>
			<circle class="st3" cx="1501.1" cy="238.9" r="0.6"/>
			<circle class="st3" cx="1578.2" cy="968.6" r="0.6"/>
			<circle class="st3" cx="94.8" cy="583.9" r="0.6"/>
			<circle class="st3" cx="1906.4" cy="1737.6" r="0.6"/>
			<circle class="st3" cx="592.9" cy="933" r="0.6"/>
			<circle class="st3" cx="203" cy="717.2" r="0.6"/>
			<circle class="st3" cx="1371.8" cy="1321.8" r="0.6"/>
			<circle class="st3" cx="1480" cy="1158.5" r="0.6"/>
			<circle class="st3" cx="139.8" cy="1775.2" r="0.6"/>
			<circle class="st3" cx="1879.8" cy="1868.5" r="0.6"/>
			<circle class="st3" cx="482" cy="56.4" r="0.6"/>
			<circle class="st3" cx="1919" cy="1751.2" r="0.6"/>
			<circle class="st3" cx="885.9" cy="185.1" r="0.6"/>
			<circle class="st3" cx="1890.6" cy="1545.6" r="0.6"/>
			<circle class="st3" cx="640.7" cy="1003" r="0.6"/>
			<circle class="st3" cx="2701.2" cy="834.4" r="0.6"/>
			<circle class="st3" cx="340.3" cy="920.1" r="0.6"/>
			<circle class="st3" cx="690.5" cy="1294.9" r="0.6"/>
			<circle class="st3" cx="1525.6" cy="837.1" r="0.6"/>
			<circle class="st3" cx="391.1" cy="625.2" r="0.6"/>
			<circle class="st3" cx="2447.6" cy="1325.6" r="0.6"/>
			<circle class="st3" cx="411.8" cy="1983.1" r="0.6"/>
			<circle class="st3" cx="598.5" cy="1204.6" r="0.6"/>
			<circle class="st3" cx="2806.9" cy="854.6" r="0.6"/>
			<circle class="st3" cx="1773.5" cy="394.1" r="0.6"/>
			<circle class="st3" cx="1203.3" cy="783" r="0.6"/>
			<circle class="st3" cx="2454.2" cy="1714.6" r="0.6"/>
			<circle class="st3" cx="2571.2" cy="712.7" r="0.7"/>
			<circle class="st3" cx="2265.8" cy="1460.9" r="0.7"/>
			<circle class="st3" cx="1010.4" cy="245.1" r="0.7"/>
			<circle class="st3" cx="301.2" cy="606.7" r="0.7"/>
			<circle class="st3" cx="632.4" cy="62.7" r="0.7"/>
			<circle class="st3" cx="1351.6" cy="1515.8" r="0.7"/>
			<circle class="st3" cx="1293.5" cy="824.9" r="0.7"/>
			<circle class="st3" cx="57.3" cy="1437.8" r="0.7"/>
			<circle class="st3" cx="753.8" cy="831" r="0.7"/>
			<circle class="st3" cx="1525.3" cy="1544.8" r="0.7"/>
			<circle class="st3" cx="145.3" cy="1249.2" r="0.7"/>
			<circle class="st3" cx="2335.4" cy="1467.7" r="0.7"/>
			<circle class="st3" cx="1157.8" cy="1624.7" r="0.7"/>
			<circle class="st3" cx="2794.8" cy="863.7" r="0.7"/>
			<circle class="st3" cx="1372.1" cy="1084" r="0.7"/>
			<circle class="st3" cx="2475.8" cy="676.3" r="0.7"/>
			<circle class="st3" cx="957.9" cy="1305.6" r="0.7"/>
			<circle class="st3" cx="530.5" cy="435.6" r="0.7"/>
			<circle class="st3" cx="2615.6" cy="1208" r="0.7"/>
			<circle class="st3" cx="2016.7" cy="1307.5" r="0.7"/>
			<circle class="st3" cx="2138.1" cy="80.4" r="0.7"/>
			<circle class="st3" cx="2150.3" cy="568.2" r="0.7"/>
			<circle class="st3" cx="1243.7" cy="639.3" r="0.7"/>
			<circle class="st3" cx="901.1" cy="1211.6" r="0.7"/>
			<circle class="st3" cx="2656.5" cy="559.9" r="0.7"/>
			<circle class="st3" cx="1509.4" cy="980.8" r="0.7"/>
			<circle class="st3" cx="2107.2" cy="1221.3" r="0.7"/>
			<circle class="st3" cx="2012.4" cy="719.8" r="0.7"/>
			<circle class="st3" cx="2106.1" cy="1743.6" r="0.7"/>
			<circle class="st3" cx="676.5" cy="87.7" r="0.7"/>
			<circle class="st3" cx="2916.3" cy="1492.2" r="0.7"/>
			<circle class="st3" cx="1130.1" cy="1299.1" r="0.7"/>
			<circle class="st3" cx="1703.1" cy="1275.8" r="0.7"/>
			<circle class="st3" cx="2560.6" cy="1959.2" r="0.7"/>
			<circle class="st3" cx="1292.6" cy="803.6" r="0.7"/>
			<circle class="st3" cx="355.8" cy="953.3" r="0.7"/>
			<circle class="st3" cx="984.9" cy="757.3" r="0.7"/>
			<circle class="st3" cx="1935.6" cy="1960.3" r="0.7"/>
			<circle class="st3" cx="146.9" cy="1042.8" r="0.7"/>
			<circle class="st3" cx="114.5" cy="1303.3" r="0.7"/>
			<circle class="st3" cx="136.6" cy="1222" r="0.7"/>
			<circle class="st3" cx="1811.4" cy="547.7" r="0.7"/>
			<circle class="st3" cx="2332.4" cy="1442.3" r="0.7"/>
			<circle class="st3" cx="1475.7" cy="1216.1" r="0.7"/>
			<circle class="st3" cx="2572.6" cy="1337.5" r="0.7"/>
			<circle class="st3" cx="112.8" cy="416.8" r="0.7"/>
			<circle class="st3" cx="1566.8" cy="934.5" r="0.7"/>
			<circle class="st3" cx="2388.2" cy="682.9" r="0.7"/>
			<circle class="st3" cx="1716" cy="1888.9" r="0.7"/>
			<circle class="st3" cx="656.8" cy="19.4" r="0.7"/>
			<circle class="st3" cx="2744.1" cy="736" r="0.7"/>
			<circle class="st3" cx="644.8" cy="1318.7" r="0.7"/>
			<circle class="st3" cx="538.8" cy="817.8" r="0.7"/>
			<circle class="st3" cx="1759.3" cy="480.1" r="0.7"/>
			<circle class="st3" cx="1825.8" cy="1640.4" r="0.7"/>
			<circle class="st3" cx="487.5" cy="1132.1" r="0.7"/>
			<circle class="st3" cx="937.7" cy="259.1" r="0.7"/>
			<circle class="st3" cx="92.2" cy="1223.4" r="0.7"/>
			<circle class="st3" cx="2556.6" cy="1812.4" r="0.7"/>
			<circle class="st3" cx="959.9" cy="810.2" r="0.7"/>
			<circle class="st3" cx="679" cy="1155.9" r="0.7"/>
			<circle class="st3" cx="708.4" cy="169.6" r="0.7"/>
			<circle class="st3" cx="650.9" cy="21.4" r="0.8"/>
			<circle class="st3" cx="2524.1" cy="1469.6" r="0.8"/>
			<circle class="st3" cx="1957.2" cy="566.3" r="0.8"/>
			<circle class="st3" cx="1895.9" cy="1832.5" r="0.8"/>
			<circle class="st3" cx="1962.7" cy="42.4" r="0.8"/>
			<circle class="st3" cx="733.3" cy="449.6" r="0.8"/>
			<circle class="st3" cx="2531.5" cy="977.3" r="0.8"/>
			<circle class="st3" cx="1890" cy="1088" r="0.8"/>
			<circle class="st3" cx="1980.7" cy="1664.7" r="0.8"/>
			<circle class="st3" cx="2359.6" cy="1031.4" r="0.8"/>
			<circle class="st3" cx="2907.4" cy="925.3" r="0.8"/>
			<circle class="st3" cx="1821.2" cy="885.5" r="0.8"/>
			<circle class="st3" cx="1670" cy="1521.9" r="0.8"/>
			<circle class="st3" cx="1145.8" cy="315.8" r="0.8"/>
			<circle class="st3" cx="1498.2" cy="1492.2" r="0.8"/>
			<circle class="st3" cx="1787.9" cy="1250.8" r="0.8"/>
			<circle class="st3" cx="1493.8" cy="1836" r="0.8"/>
			<circle class="st3" cx="2295.8" cy="1738.1" r="0.8"/>
			<circle class="st3" cx="2544.8" cy="1704.1" r="0.8"/>
			<circle class="st3" cx="2165.1" cy="325.2" r="0.8"/>
			<circle class="st3" cx="326.7" cy="228.9" r="0.8"/>
			<circle class="st3" cx="124.9" cy="47.7" r="0.8"/>
			<circle class="st3" cx="1483" cy="382.3" r="0.8"/>
			<circle class="st3" cx="692.1" cy="1202.6" r="0.8"/>
			<circle class="st3" cx="1657.1" cy="584.6" r="0.8"/>
			<circle class="st3" cx="382.7" cy="1856.3" r="0.8"/>
			<circle class="st3" cx="592.1" cy="514.5" r="0.8"/>
			<circle class="st3" cx="1958.4" cy="764.5" r="0.8"/>
			<circle class="st3" cx="1605.6" cy="272.2" r="0.8"/>
			<circle class="st3" cx="923.9" cy="1071.5" r="0.8"/>
			<circle class="st3" cx="212.1" cy="684.5" r="0.8"/>
			<circle class="st3" cx="1748" cy="1694" r="0.8"/>
			<circle class="st3" cx="136.5" cy="1222" r="0.8"/>
			<circle class="st3" cx="128.2" cy="178.5" r="0.8"/>
			<circle class="st3" cx="1076" cy="1612.1" r="0.8"/>
			<circle class="st3" cx="1204" cy="1276.5" r="0.8"/>
			<circle class="st3" cx="1239.3" cy="153.4" r="0.8"/>
			<circle class="st3" cx="875.6" cy="636.4" r="0.8"/>
			<circle class="st3" cx="1451.8" cy="11.6" r="0.8"/>
			<circle class="st3" cx="2724.1" cy="453.2" r="0.8"/>
			<circle class="st3" cx="666" cy="248.8" r="0.8"/>
			<circle class="st3" cx="1171.6" cy="286.1" r="0.8"/>
			<circle class="st3" cx="2227" cy="184.6" r="0.8"/>
			<circle class="st3" cx="2519" cy="1398.3" r="0.8"/>
			<circle class="st3" cx="896.6" cy="1601.7" r="0.8"/>
			<circle class="st3" cx="1877.1" cy="1977.8" r="0.8"/>
			<circle class="st3" cx="2896.9" cy="1904.7" r="0.8"/>
			<circle class="st3" cx="1729.1" cy="1954.2" r="0.8"/>
			<circle class="st3" cx="1571.4" cy="1483.8" r="0.8"/>
			<circle class="st3" cx="2634.8" cy="806.8" r="0.8"/>
			<circle class="st3" cx="1881.1" cy="1570.3" r="0.8"/>
			<circle class="st3" cx="503.9" cy="1713.3" r="0.8"/>
			<circle class="st3" cx="978.4" cy="629.4" r="0.8"/>
			<circle class="st3" cx="2744.8" cy="828.2" r="0.8"/>
			<circle class="st3" cx="550" cy="303.4" r="0.8"/>
			<circle class="st3" cx="2790.1" cy="1386" r="0.8"/>
			<circle class="st3" cx="2398.5" cy="567.4" r="0.8"/>
			<circle class="st3" cx="2212.9" cy="1955.1" r="0.8"/>
			<circle class="st3" cx="1938.4" cy="1769.5" r="0.8"/>
			<circle class="st3" cx="374.7" cy="5.2" r="0.8"/>
			<circle class="st3" cx="243.5" cy="1360.2" r="0.9"/>
			<circle class="st3" cx="1362.9" cy="374" r="0.9"/>
			<circle class="st3" cx="2221.7" cy="1933.3" r="0.9"/>
			<circle class="st3" cx="1218.2" cy="148.2" r="0.9"/>
			<circle class="st3" cx="2796.4" cy="325.3" r="0.9"/>
			<circle class="st3" cx="359.8" cy="1629.3" r="0.9"/>
			<circle class="st3" cx="1288.5" cy="1712" r="0.9"/>
			<circle class="st3" cx="1367.8" cy="1534.9" r="0.9"/>
			<circle class="st3" cx="1962.7" cy="1766.8" r="0.9"/>
			<circle class="st3" cx="685.5" cy="1932" r="0.9"/>
			<circle class="st3" cx="129.7" cy="556.7" r="0.9"/>
			<circle class="st3" cx="1723" cy="1295.8" r="0.9"/>
			<circle class="st3" cx="1445.1" cy="393.1" r="0.9"/>
			<circle class="st3" cx="507.5" cy="67.8" r="0.9"/>
			<circle class="st3" cx="934.6" cy="1915.1" r="0.9"/>
			<circle class="st3" cx="881.2" cy="492.5" r="0.9"/>
			<circle class="st3" cx="2399.5" cy="1982.1" r="0.9"/>
			<circle class="st3" cx="1760.4" cy="1880.4" r="0.9"/>
			<circle class="st3" cx="916.3" cy="971.5" r="0.9"/>
			<circle class="st3" cx="2057.6" cy="1423.9" r="0.9"/>
			<circle class="st3" cx="1893.7" cy="1929.7" r="0.9"/>
			<circle class="st3" cx="1539.6" cy="448.8" r="0.9"/>
			<circle class="st3" cx="2867.3" cy="1926.1" r="0.9"/>
			<circle class="st3" cx="935.7" cy="1774.6" r="0.9"/>
			<circle class="st3" cx="94.8" cy="584" r="0.9"/>
			<circle class="st3" cx="2247.1" cy="996.5" r="0.9"/>
			<circle class="st3" cx="1115.2" cy="250.3" r="0.9"/>
			<circle class="st3" cx="2368.1" cy="1921" r="0.9"/>
			<circle class="st3" cx="2820.3" cy="1412.1" r="0.9"/>
			<circle class="st3" cx="94.8" cy="584" r="0.9"/>
			<circle class="st3" cx="1062.5" cy="614.4" r="0.9"/>
			<circle class="st3" cx="1764.4" cy="63.3" r="1"/>
			<circle class="st3" cx="1646.4" cy="1797.8" r="1"/>
			<circle class="st3" cx="1826.5" cy="967" r="1"/>
			<circle class="st3" cx="1210.2" cy="30" r="1"/>
			<circle class="st3" cx="1539.6" cy="448.8" r="1"/>
			<circle class="st3" cx="1633.3" cy="1875.5" r="1"/>
			<circle class="st3" cx="1539.6" cy="448.8" r="1"/>
			<circle class="st3" cx="562.2" cy="1805.4" r="1"/>
			<circle class="st3" cx="1289" cy="939.9" r="1"/>
			<circle class="st3" cx="2359.8" cy="1529.5" r="1"/>
			<circle class="st3" cx="1658.3" cy="841.5" r="1"/>
			<circle class="st3" cx="259.6" cy="949.7" r="1"/>
			<circle class="st3" cx="2528.5" cy="428.2" r="1"/>
			<circle class="st3" cx="2763.9" cy="1737.5" r="1"/>
			<circle class="st3" cx="2870.4" cy="1931.3" r="1"/>
			<circle class="st3" cx="817.2" cy="1212.6" r="1"/>
			<circle class="st3" cx="2247.5" cy="1717.1" r="1"/>
			<circle class="st3" cx="100.2" cy="1279.2" r="1"/>
			<circle class="st3" cx="734.2" cy="1536.9" r="1"/>
			<circle class="st3" cx="2898.4" cy="1721.9" r="1"/>
			<circle class="st3" cx="1149.6" cy="1935.5" r="1"/>
			<circle class="st3" cx="1571.4" cy="1483.8" r="1"/>
			<circle class="st3" cx="1760.5" cy="1730.3" r="1"/>
			<circle class="st3" cx="770.2" cy="82.5" r="1"/>
			<circle class="st3" cx="2691.2" cy="1975.5" r="1"/>
			<circle class="st3" cx="1528.7" cy="1752.3" r="1.1"/>
			<circle class="st3" cx="2864.6" cy="1446.6" r="1.1"/>
			<circle class="st3" cx="1593.9" cy="1774.9" r="1.1"/>
			<circle class="st3" cx="2041.1" cy="530.1" r="1.1"/>
			<circle class="st3" cx="2860.5" cy="1387.9" r="1.1"/>
			<circle class="st3" cx="368.3" cy="61" r="1"/>
			<circle class="st3" cx="284.8" cy="233.3" r="1.1"/>
			<circle class="st3" cx="2221.7" cy="885.7" r="1.1"/>
			<circle class="st3" cx="860.6" cy="278" r="1.1"/>
			<circle class="st3" cx="1292.6" cy="803.5" r="1.1"/>
			<circle class="st3" cx="1130.1" cy="1299.1" r="1.1"/>
			<circle class="st3" cx="818.1" cy="509.4" r="1.1"/>
			<circle class="st3" cx="1748.2" cy="1558.8" r="1.1"/>
			<circle class="st3" cx="510" cy="1793.6" r="1.1"/>
			<circle class="st3" cx="1702.8" cy="1719.9" r="1.1"/>
			<circle class="st3" cx="1052.3" cy="687.8" r="1.2"/>
			<circle class="st3" cx="2112.9" cy="793.9" r="1.1"/>
			<circle class="st3" cx="2552.1" cy="1697.8" r="1.1"/>
			<circle class="st3" cx="1791.4" cy="115.7" r="1.2"/>
			<circle class="st3" cx="2744.4" cy="1678.5" r="1.1"/>
			<circle class="st3" cx="2618.1" cy="1765.3" r="1.2"/>
			<circle class="st3" cx="533.2" cy="1754.8" r="1.2"/>
			<circle class="st3" cx="1759.4" cy="1722.3" r="1.2"/>
			<circle class="st3" cx="2143" cy="1966.9" r="1.2"/>
			<circle class="st3" cx="1814.3" cy="1417.6" r="1.2"/>
			<circle class="st3" cx="361.3" cy="678.5" r="1.2"/>
			<circle class="st3" cx="2760.5" cy="0.3" r="1.2"/>
			<circle class="st3" cx="1939.4" cy="925.9" r="1.2"/>
			<circle class="st3" cx="280.7" cy="61.6" r="1.2"/>
			<circle class="st3" cx="2008.3" cy="1883.6" r="1.2"/>
			<circle class="st3" cx="1058" cy="787.6" r="1.2"/>
			<circle class="st3" cx="915.5" cy="454" r="1.2"/>
			<circle class="st3" cx="1292.6" cy="803.5" r="1.2"/>
			<circle class="st3" cx="2963.4" cy="1721.8" r="1.3"/>
			<circle class="st3" cx="833.3" cy="824" r="1.3"/>
			<circle class="st3" cx="624.3" cy="1690.4" r="1.3"/>
			<circle class="st3" cx="341.7" cy="1605.8" r="1.3"/>
			<circle class="st3" cx="1762.4" cy="759.3" r="1.3"/>
			<circle class="st3" cx="1321.9" cy="1031.7" r="1.4"/>
			<circle class="st3" cx="16.3" cy="967.5" r="1.4"/>
			<circle class="st3" cx="2627.1" cy="154.6" r="1.4"/>
			<circle class="st3" cx="2122.1" cy="1807.7" r="1.4"/>
			<circle class="st3" cx="1123.8" cy="742.2" r="1.4"/>
			<circle class="st3" cx="938.4" cy="311.3" r="1.4"/>
			<circle class="st3" cx="2094.5" cy="1757.6" r="1.4"/>
			<circle class="st3" cx="2361.8" cy="1898.6" r="1.4"/>
			<circle class="st3" cx="1492.6" cy="1215.8" r="1.4"/>
			<circle class="st3" cx="2922.7" cy="1927.8" r="1.4"/>
			<circle class="st3" cx="306.7" cy="372.9" r="1.5"/>
			<circle class="st3" cx="910.9" cy="145.3" r="1.5"/>
			<circle class="st3" cx="2417.5" cy="107.6" r="1.5"/>
			<circle class="st3" cx="122.9" cy="968.5" r="1.5"/>
			<circle class="st3" cx="2256.9" cy="435.8" r="1.6"/>
			<circle class="st3" cx="598.5" cy="1204.6" r="1.6"/>
			<circle class="st3" cx="2221.9" cy="1524.3" r="1.6"/>
			<circle class="st3" cx="2600.7" cy="1292.1" r="1.6"/>
			<circle class="st3" cx="1346.5" cy="1395.8" r="1.6"/>
			<circle class="st3" cx="810.3" cy="1251.4" r="1.7"/>
			<circle class="st3" cx="155.3" cy="561.8" r="1.7"/>
			<circle class="st3" cx="387.4" cy="917.4" r="1.7"/>
			<circle class="st3" cx="2617.4" cy="1963.1" r="1.8"/>
			<circle class="st3" cx="2840.4" cy="972.8" r="1.8"/>
			<circle class="st3" cx="1790.3" cy="1918.3" r="1.9"/>
			<circle class="st3" cx="1926.7" cy="1815.8" r="2"/>
			<circle class="st3" cx="463.8" cy="578.4" r="2"/>
			<circle class="st3" cx="735.3" cy="802.9" r="2"/>
			<circle class="st3" cx="613.2" cy="1616.5" r="2.1"/>
			<circle class="st3" cx="2627" cy="154.6" r="2.1"/>
			<circle class="st3" cx="1349.4" cy="1350.8" r="2.1"/>
			<circle class="st3" cx="2107" cy="1223.4" r="2.1"/>
			<circle class="st3" cx="1218.2" cy="148.2" r="2.1"/>
			<circle class="st3" cx="1699.7" cy="83.1" r="2.1"/>
			<circle class="st3" cx="1321.1" cy="951.2" r="2.1"/>
			<circle class="st3" cx="2644.1" cy="1990.7" r="2.1"/>
			<circle class="st3" cx="1748.2" cy="1694.1" r="2.1"/>
			<circle class="st3" cx="1811.4" cy="1191.2" r="2.1"/>
			<circle class="st3" cx="1359.5" cy="1638.1" r="2.2"/>
			<circle class="st3" cx="1218.2" cy="148.2" r="2.3"/>
			<circle class="st3" cx="1279.3" cy="1946.7" r="2.3"/>
			<circle class="st3" cx="2748.9" cy="1867.8" r="2.4"/>
			<circle class="st3" cx="1839.8" cy="1736.8" r="2.4"/>
			<circle class="st3" cx="952.2" cy="404.7" r="2.6"/>
			<circle class="st3" cx="501.9" cy="1355.1" r="2.8"/>
			<circle class="st3" cx="2796.3" cy="1575.9" r="2.8"/>
			<circle class="st3" cx="1764.6" cy="1982.3" r="4.4"/>
			<circle class="st3" cx="2548.5" cy="662.6" r="4.4"/>
			<circle class="st3" cx="1562.7" cy="181.2" r="5"/>
		</g>
	</g>
	<g id="Bright">
		<defs>
			<rect id="SVGID_3_" x="-2.6" y="1.9" width="3000" height="2000"/>
		</defs>
		<clipPath id="SVGID_4_">
			<use xlink:href="#SVGID_3_"  style="overflow:visible;"/>
		</clipPath>
		<g class="st4">
			<rect x="-0.6" y="-0.1" class="st0" width="3000" height="2000"/>
			<circle class="st3" cx="1763.8" cy="63.2" r="1"/>
			<circle class="st3" cx="1645.8" cy="1797.9" r="1"/>
			<circle class="st3" cx="1826" cy="967.1" r="1"/>
			<circle class="st3" cx="1209.4" cy="30.1" r="1"/>
			<circle class="st3" cx="1539.1" cy="448.9" r="1"/>
			<circle class="st3" cx="1632.7" cy="1875.6" r="1"/>
			<circle class="st3" cx="1539.1" cy="448.9" r="1"/>
			<circle class="st3" cx="561.9" cy="1805.3" r="1"/>
			<circle class="st3" cx="1288.5" cy="940" r="1"/>
			<circle class="st3" cx="2359.3" cy="1529.8" r="1"/>
			<circle class="st3" cx="1657.8" cy="841.7" r="1"/>
			<circle class="st3" cx="259.3" cy="950.1" r="1"/>
			<circle class="st3" cx="2528.2" cy="428.2" r="1"/>
			<circle class="st3" cx="2763.3" cy="1738" r="1"/>
			<circle class="st3" cx="2869.8" cy="1931.9" r="1"/>
			<circle class="st3" cx="816.8" cy="1212.8" r="1"/>
			<circle class="st3" cx="2246.9" cy="1717.3" r="1"/>
			<circle class="st3" cx="100.1" cy="1279.5" r="1"/>
			<circle class="st3" cx="733.9" cy="1537" r="1"/>
			<circle class="st3" cx="2897.9" cy="1722.5" r="1"/>
			<circle class="st3" cx="1149.1" cy="1935.4" r="1"/>
			<circle class="st3" cx="1570.9" cy="1483.9" r="1"/>
			<circle class="st3" cx="1759.9" cy="1730.4" r="1"/>
			<circle class="st3" cx="769.4" cy="82.8" r="1"/>
			<circle class="st3" cx="2690.5" cy="1976" r="1"/>
			<circle class="st3" cx="1528.2" cy="1752.3" r="1.1"/>
			<circle class="st3" cx="2864.2" cy="1447" r="1.1"/>
			<circle class="st3" cx="1593.4" cy="1775" r="1.1"/>
			<circle class="st3" cx="2040.6" cy="530.1" r="1.1"/>
			<circle class="st3" cx="2860.1" cy="1388.4" r="1.1"/>
			<circle class="st3" cx="367.5" cy="61.6" r="1"/>
			<circle class="st3" cx="284.2" cy="233.9" r="1.1"/>
			<circle class="st3" cx="2221.3" cy="885.9" r="1.1"/>
			<circle class="st3" cx="860" cy="278.3" r="1.1"/>
			<circle class="st3" cx="1292.1" cy="803.7" r="1.1"/>
			<circle class="st3" cx="1129.6" cy="1299.3" r="1.1"/>
			<circle class="st3" cx="817.5" cy="509.7" r="1.1"/>
			<circle class="st3" cx="1747.7" cy="1559" r="1.1"/>
			<path class="st3" d="M509.8,1792.5c0.6,0,1.1,0.5,1.1,1.1s-0.5,1.1-1.1,1.1c-0.6,0-1.1-0.5-1.1-1.1S509.2,1792.5,509.8,1792.5z"
				/>
			<circle class="st3" cx="1702.2" cy="1720" r="1.1"/>
			<circle class="st3" cx="1051.8" cy="688" r="1.2"/>
			<circle class="st3" cx="2112.4" cy="794" r="1.1"/>
			<circle class="st3" cx="2551.5" cy="1698.2" r="1.1"/>
			<circle class="st3" cx="1790.8" cy="115.7" r="1.2"/>
			<circle class="st3" cx="2743.8" cy="1679" r="1.1"/>
			<circle class="st3" cx="2617.5" cy="1765.8" r="1.2"/>
			<circle class="st3" cx="533" cy="1754.8" r="1.2"/>
			<circle class="st3" cx="1758.8" cy="1722.4" r="1.2"/>
			<circle class="st3" cx="2142.3" cy="1967.1" r="1.2"/>
			<circle class="st3" cx="1813.7" cy="1417.7" r="1.2"/>
			<circle class="st3" cx="360.8" cy="679" r="1.2"/>
			<circle class="st3" cx="1938.9" cy="926" r="1.2"/>
			<circle class="st3" cx="279.9" cy="62.2" r="1.2"/>
			<circle class="st3" cx="2007.7" cy="1883.7" r="1.2"/>
			<circle class="st3" cx="1057.5" cy="787.8" r="1.2"/>
			<circle class="st3" cx="914.9" cy="454.3" r="1.2"/>
			<circle class="st3" cx="1292.1" cy="803.7" r="1.2"/>
			<circle class="st3" cx="2962.9" cy="1722.4" r="1.3"/>
			<circle class="st3" cx="832.8" cy="824.2" r="1.3"/>
			<circle class="st3" cx="624" cy="1690.4" r="1.3"/>
			<circle class="st3" cx="341.5" cy="1605.9" r="1.3"/>
			<circle class="st3" cx="1761.9" cy="759.4" r="1.3"/>
			<circle class="st3" cx="1321.4" cy="1031.9" r="1.4"/>
			<circle class="st3" cx="16.1" cy="968" r="1.4"/>
			<circle class="st3" cx="2626.9" cy="154.4" r="1.4"/>
			<circle class="st3" cx="2121.5" cy="1807.9" r="1.4"/>
			<circle class="st3" cx="1123.3" cy="742.4" r="1.4"/>
			<circle class="st3" cx="937.7" cy="311.5" r="1.4"/>
			<circle class="st3" cx="2093.9" cy="1757.8" r="1.4"/>
			<circle class="st3" cx="2361.1" cy="1898.9" r="1.4"/>
			<circle class="st3" cx="1492" cy="1215.9" r="1.4"/>
			<circle class="st3" cx="2922" cy="1928.4" r="1.4"/>
			<circle class="st3" cx="306.1" cy="373.4" r="1.5"/>
			<circle class="st3" cx="910.2" cy="145.6" r="1.5"/>
			<circle class="st3" cx="2417.2" cy="107.4" r="1.5"/>
			<circle class="st3" cx="122.7" cy="968.9" r="1.5"/>
			<circle class="st3" cx="2256.5" cy="435.8" r="1.6"/>
			<circle class="st3" cx="598.2" cy="1204.8" r="1.6"/>
			<circle class="st3" cx="2221.4" cy="1524.5" r="1.6"/>
			<circle class="st3" cx="2600.3" cy="1292.5" r="1.6"/>
			<circle class="st3" cx="1346" cy="1395.9" r="1.6"/>
			<circle class="st3" cx="809.9" cy="1251.6" r="1.7"/>
			<circle class="st3" cx="154.8" cy="562.4" r="1.7"/>
			<circle class="st3" cx="387" cy="917.7" r="1.7"/>
			<circle class="st3" cx="2616.7" cy="1963.6" r="1.8"/>
			<circle class="st3" cx="2840.2" cy="973.1" r="1.8"/>
			<circle class="st3" cx="1789.6" cy="1918.4" r="1.9"/>
			<circle class="st3" cx="1926" cy="1815.9" r="2"/>
			<circle class="st3" cx="463.3" cy="578.8" r="2"/>
			<circle class="st3" cx="734.8" cy="803.2" r="2"/>
			<circle class="st3" cx="612.9" cy="1616.6" r="2.1"/>
			<circle class="st3" cx="2626.8" cy="154.5" r="2.1"/>
			<circle class="st3" cx="1349" cy="1350.9" r="2.1"/>
			<circle class="st3" cx="2106.5" cy="1223.6" r="2.1"/>
			<circle class="st3" cx="1217.5" cy="148.4" r="2.1"/>
			<circle class="st3" cx="1699.1" cy="83.1" r="2.1"/>
			<circle class="st3" cx="1320.6" cy="951.3" r="2.1"/>
			<circle class="st3" cx="2643.4" cy="1991.2" r="2.1"/>
			<circle class="st3" cx="1747.6" cy="1694.2" r="2.1"/>
			<circle class="st3" cx="1810.9" cy="1191.3" r="2.1"/>
			<circle class="st3" cx="1358.9" cy="1638.2" r="2.2"/>
			<circle class="st3" cx="1217.5" cy="148.4" r="2.3"/>
			<circle class="st3" cx="1278.8" cy="1946.7" r="2.3"/>
			<circle class="st3" cx="2748.3" cy="1868.3" r="2.4"/>
			<circle class="st3" cx="1839.2" cy="1736.9" r="2.4"/>
			<circle class="st3" cx="951.5" cy="405" r="2.6"/>
			<circle class="st3" cx="501.6" cy="1355.3" r="2.8"/>
			<circle class="st3" cx="2795.9" cy="1576.4" r="2.8"/>
			<circle class="st3" cx="1764" cy="1982.4" r="4.4"/>
			<circle class="st3" cx="2548.3" cy="662.7" r="4.4"/>
			<circle class="st3" cx="1562.1" cy="181.3" r="5"/>
		</g>
	</g>
</g>
</svg>
