<svg id="Layer_1" data-name="Layer 1" xmlns="http://www.w3.org/2000/svg" xmlns:xlink="http://www.w3.org/1999/xlink" viewBox="0 0 2949.82 1998.9"><defs><style>.cls-1{fill:none;}.cls-2{clip-path:url(#clip-path);}.cls-3{fill:#fff;}</style><clipPath id="clip-path" transform="translate(-14.93 0.99)"><rect class="cls-1" width="3000" height="2000"/></clipPath></defs><g id="Intermediate"><g class="cls-2"><circle class="cls-3" cx="252.87" cy="1816.36" r="0.56"/><circle class="cls-3" cx="233.43" cy="1193.63" r="0.56"/><circle class="cls-3" cx="2844.13" cy="1200.88" r="0.56"/><circle class="cls-3" cx="1162.03" cy="477.81" r="0.56"/><circle class="cls-3" cx="2324.73" cy="1418.4" r="0.56"/><circle class="cls-3" cx="2264.55" cy="295.22" r="0.56"/><circle class="cls-3" cx="270.18" cy="819.34" r="0.56"/><circle class="cls-3" cx="418.89" cy="1245.59" r="0.56"/><circle class="cls-3" cx="450.43" cy="1802.47" r="0.56"/><circle class="cls-3" cx="1092.96" cy="287.02" r="0.56"/><circle class="cls-3" cx="216.78" cy="129.08" r="0.56"/><circle class="cls-3" cx="1475.81" cy="1696.02" r="0.56"/><circle class="cls-3" cx="228.85" cy="1749.55" r="0.56"/><circle class="cls-3" cx="2840.13" cy="1836.26" r="0.56"/><circle class="cls-3" cx="506.23" cy="916.45" r="0.56"/><circle class="cls-3" cx="1776.61" cy="784.74" r="0.56"/><circle class="cls-3" cx="361.76" cy="1161.35" r="0.56"/><circle class="cls-3" cx="2572.97" cy="1714.61" r="0.56"/><circle class="cls-3" cx="2014.15" cy="120.29" r="0.56"/><circle class="cls-3" cx="2090.59" cy="20.58" r="0.56"/><circle class="cls-3" cx="193.15" cy="886.83" r="0.56"/><circle class="cls-3" cx="1883" cy="1428.83" r="0.56"/><circle class="cls-3" cx="742.96" cy="1026.56" r="0.56"/><circle class="cls-3" cx="299.47" cy="1271.32" r="0.56"/><circle class="cls-3" cx="1094.36" cy="986.66" r="0.56"/><circle class="cls-3" cx="146.54" cy="799.59" r="0.56"/><circle class="cls-3" cx="961.19" cy="1554.24" r="0.56"/><circle class="cls-3" cx="1933.93" cy="1803.53" r="0.56"/><circle class="cls-3" cx="1601.63" cy="950.78" r="0.56"/><circle class="cls-3" cx="144.45" cy="1170.9" r="0.56"/><circle class="cls-3" cx="520.66" cy="318.26" r="0.56"/><circle class="cls-3" cx="2846.06" cy="1776.99" r="0.56"/><circle class="cls-3" cx="1031.5" cy="1221.57" r="0.56"/><circle class="cls-3" cx="892.31" cy="1830.98" r="0.56"/><circle class="cls-3" cx="2312.99" cy="1454.64" r="0.56"/><path class="cls-3" d="M602.12,255.4a.56.56,0,1,1-.56.56A.56.56,0,0,1,602.12,255.4Z" transform="translate(-14.93 0.99)"/><circle class="cls-3" cx="2062.31" cy="1169.04" r="0.56"/><circle class="cls-3" cx="2175.53" cy="1974.82" r="0.59"/><circle class="cls-3" cx="2931.1" cy="437.92" r="0.59"/><circle class="cls-3" cx="1953.61" cy="182.08" r="0.59"/><circle class="cls-3" cx="718.13" cy="1600.88" r="0.59"/><circle class="cls-3" cx="759.44" cy="300.46" r="0.59"/><circle class="cls-3" cx="2511.23" cy="898.47" r="0.59"/><circle class="cls-3" cx="483.14" cy="956.09" r="0.59"/><circle class="cls-3" cx="37.37" cy="1960" r="0.59"/><circle class="cls-3" cx="1319.64" cy="981.5" r="0.59"/><circle class="cls-3" cx="2599.04" cy="515.56" r="0.59"/><circle class="cls-3" cx="195.86" cy="1048.06" r="0.59"/><circle class="cls-3" cx="38.94" cy="487.43" r="0.59"/><circle class="cls-3" cx="1527.27" cy="1891.73" r="0.59"/><circle class="cls-3" cx="2423.71" cy="804.76" r="0.59"/><circle class="cls-3" cx="558.47" cy="401.69" r="0.59"/><circle class="cls-3" cx="2654.38" cy="1595.44" r="0.59"/><circle class="cls-3" cx="1566.35" cy="502.28" r="0.59"/><circle class="cls-3" cx="370" cy="1296.33" r="0.59"/><circle class="cls-3" cx="713.57" cy="16.82" r="0.59"/><circle class="cls-3" cx="1698.01" cy="1127.19" r="0.59"/><circle class="cls-3" cx="1699.17" cy="322.27" r="0.59"/><circle class="cls-3" cx="2818.61" cy="1997.91" r="0.59"/><circle class="cls-3" cx="1063.98" cy="823.14" r="0.59"/><circle class="cls-3" cx="423.54" cy="347.98" r="0.59"/><circle class="cls-3" cx="2570.99" cy="817.96" r="0.59"/><circle class="cls-3" cx="1012.11" cy="1976.96" r="0.59"/><circle class="cls-3" cx="2355.11" cy="1104.86" r="0.59"/><circle class="cls-3" cx="1489.73" cy="1222.64" r="0.59"/><circle class="cls-3" cx="1753.49" cy="950.95" r="0.59"/><circle class="cls-3" cx="1514.93" cy="1394.72" r="0.59"/><circle class="cls-3" cx="50.91" cy="935.94" r="0.59"/><circle class="cls-3" cx="917.03" cy="38.68" r="0.59"/><circle class="cls-3" cx="1722.48" cy="868.99" r="0.59"/><circle class="cls-3" cx="2073.43" cy="1511.3" r="0.59"/><circle class="cls-3" cx="1004.56" cy="1426.4" r="0.59"/><circle class="cls-3" cx="954.46" cy="262.29" r="0.59"/><circle class="cls-3" cx="389.14" cy="1107.2" r="0.59"/><circle class="cls-3" cx="1425.64" cy="1471.47" r="0.59"/><circle class="cls-3" cx="1531.05" cy="1076.81" r="0.59"/><circle class="cls-3" cx="1920.29" cy="1523.82" r="0.61"/><circle class="cls-3" cx="440.45" cy="1801.1" r="0.61"/><circle class="cls-3" cx="2832.26" cy="1945.42" r="0.61"/><circle class="cls-3" cx="1858.42" cy="1455.83" r="0.61"/><circle class="cls-3" cx="405.9" cy="258.96" r="0.61"/><circle class="cls-3" cx="2626.16" cy="1296.16" r="0.61"/><circle class="cls-3" cx="885.54" cy="1269.29" r="0.61"/><circle class="cls-3" cx="2854.01" cy="338.15" r="0.61"/><circle class="cls-3" cx="78.14" cy="1059.17" r="0.61"/><circle class="cls-3" cx="1160.19" cy="1134.64" r="0.61"/><circle class="cls-3" cx="1960.36" cy="1138.56" r="0.61"/><circle class="cls-3" cx="1691.2" cy="1588.73" r="0.61"/><circle class="cls-3" cx="815.22" cy="171.05" r="0.61"/><circle class="cls-3" cx="2225.64" cy="830.38" r="0.61"/><circle class="cls-3" cx="957.9" cy="663.27" r="0.61"/><circle class="cls-3" cx="704.01" cy="1921.82" r="0.61"/><circle class="cls-3" cx="2526.84" cy="958.81" r="0.61"/><circle class="cls-3" cx="1147.63" cy="1816.89" r="0.61"/><circle class="cls-3" cx="2810.62" cy="1998.29" r="0.61"/><circle class="cls-3" cx="178.44" cy="1850.93" r="0.61"/><circle class="cls-3" cx="2038.29" cy="883.25" r="0.61"/><circle class="cls-3" cx="576.08" cy="207.47" r="0.61"/><circle class="cls-3" cx="2328.59" cy="1938.54" r="0.61"/><circle class="cls-3" cx="2097.24" cy="379.33" r="0.61"/><circle class="cls-3" cx="2371.53" cy="1715.32" r="0.61"/><circle class="cls-3" cx="1450.28" cy="1457.29" r="0.61"/><circle class="cls-3" cx="786.6" cy="1649.33" r="0.61"/><circle class="cls-3" cx="292.79" cy="1736.58" r="0.61"/><circle class="cls-3" cx="1767.79" cy="1483.88" r="0.61"/><circle class="cls-3" cx="1884.3" cy="1783.45" r="0.61"/><circle class="cls-3" cx="647.51" cy="356.84" r="0.61"/><circle class="cls-3" cx="516.81" cy="439.77" r="0.61"/><circle class="cls-3" cx="200.54" cy="562.45" r="0.61"/><circle class="cls-3" cx="1667.89" cy="349.56" r="0.61"/><circle class="cls-3" cx="1157.02" cy="1320.23" r="0.61"/><circle class="cls-3" cx="1486.14" cy="239.88" r="0.61"/><circle class="cls-3" cx="1563.27" cy="969.56" r="0.61"/><circle class="cls-3" cx="79.9" cy="584.92" r="0.61"/><circle class="cls-3" cx="1891.49" cy="1738.57" r="0.64"/><circle class="cls-3" cx="577.94" cy="934.03" r="0.64"/><circle class="cls-3" cx="188.08" cy="718.2" r="0.64"/><circle class="cls-3" cx="1356.89" cy="1322.78" r="0.64"/><circle class="cls-3" cx="1465.08" cy="1159.48" r="0.64"/><circle class="cls-3" cx="124.9" cy="1776.17" r="0.64"/><circle class="cls-3" cx="1864.84" cy="1869.48" r="0.64"/><circle class="cls-3" cx="467.02" cy="57.42" r="0.64"/><circle class="cls-3" cx="1904.05" cy="1752.2" r="0.64"/><circle class="cls-3" cx="870.94" cy="186.07" r="0.64"/><circle class="cls-3" cx="1875.66" cy="1546.54" r="0.64"/><circle class="cls-3" cx="625.8" cy="1003.95" r="0.64"/><circle class="cls-3" cx="2686.32" cy="835.38" r="0.64"/><circle class="cls-3" cx="325.39" cy="921.06" r="0.64"/><circle class="cls-3" cx="675.61" cy="1295.94" r="0.64"/><circle class="cls-3" cx="1510.63" cy="838.13" r="0.64"/><circle class="cls-3" cx="376.14" cy="626.21" r="0.64"/><circle class="cls-3" cx="2432.66" cy="1326.56" r="0.64"/><circle class="cls-3" cx="396.89" cy="1984.11" r="0.64"/><circle class="cls-3" cx="583.58" cy="1205.62" r="0.64"/><circle class="cls-3" cx="2791.98" cy="855.61" r="0.64"/><circle class="cls-3" cx="1758.55" cy="395.05" r="0.64"/><circle class="cls-3" cx="1188.34" cy="784.01" r="0.64"/><circle class="cls-3" cx="2439.25" cy="1715.57" r="0.64"/><circle class="cls-3" cx="2556.23" cy="713.72" r="0.67"/><circle class="cls-3" cx="2250.91" cy="1461.92" r="0.67"/><circle class="cls-3" cx="995.48" cy="246.08" r="0.67"/><circle class="cls-3" cx="286.28" cy="607.69" r="0.67"/><circle class="cls-3" cx="617.44" cy="63.67" r="0.67"/><circle class="cls-3" cx="1336.71" cy="1516.75" r="0.67"/><circle class="cls-3" cx="1278.6" cy="825.91" r="0.67"/><circle class="cls-3" cx="42.4" cy="1438.82" r="0.67"/><circle class="cls-3" cx="738.82" cy="831.96" r="0.67"/><circle class="cls-3" cx="1510.4" cy="1545.79" r="0.67"/><circle class="cls-3" cx="130.4" cy="1250.17" r="0.67"/><circle class="cls-3" cx="2320.5" cy="1468.68" r="0.67"/><circle class="cls-3" cx="1142.9" cy="1625.68" r="0.67"/><circle class="cls-3" cx="2779.83" cy="864.72" r="0.67"/><circle class="cls-3" cx="1357.2" cy="1085" r="0.67"/><circle class="cls-3" cx="2460.86" cy="677.34" r="0.67"/><circle class="cls-3" cx="942.96" cy="1306.61" r="0.67"/><circle class="cls-3" cx="515.59" cy="436.56" r="0.67"/><circle class="cls-3" cx="2600.68" cy="1208.98" r="0.67"/><circle class="cls-3" cx="2001.78" cy="1308.51" r="0.7"/><circle class="cls-3" cx="2123.22" cy="81.35" r="0.7"/><circle class="cls-3" cx="2135.37" cy="569.23" r="0.7"/><circle class="cls-3" cx="1228.73" cy="640.34" r="0.7"/><circle class="cls-3" cx="886.2" cy="1212.56" r="0.7"/><circle class="cls-3" cx="2641.61" cy="560.86" r="0.7"/><circle class="cls-3" cx="1494.43" cy="981.84" r="0.7"/><circle class="cls-3" cx="2092.31" cy="1222.34" r="0.7"/><circle class="cls-3" cx="1997.46" cy="720.79" r="0.7"/><circle class="cls-3" cx="2091.13" cy="1744.57" r="0.7"/><circle class="cls-3" cx="661.6" cy="88.65" r="0.7"/><circle class="cls-3" cx="2901.34" cy="1493.15" r="0.7"/><circle class="cls-3" cx="1115.15" cy="1300.13" r="0.7"/><circle class="cls-3" cx="1688.12" cy="1276.83" r="0.7"/><circle class="cls-3" cx="2545.7" cy="1960.23" r="0.7"/><circle class="cls-3" cx="1277.7" cy="804.55" r="0.7"/><circle class="cls-3" cx="340.9" cy="954.26" r="0.7"/><circle class="cls-3" cx="970.01" cy="758.33" r="0.7"/><circle class="cls-3" cx="1920.66" cy="1961.34" r="0.7"/><circle class="cls-3" cx="132" cy="1043.83" r="0.7"/><circle class="cls-3" cx="99.6" cy="1304.32" r="0.7"/><circle class="cls-3" cx="121.68" cy="1222.95" r="0.7"/><circle class="cls-3" cx="1796.51" cy="548.67" r="0.73"/><circle class="cls-3" cx="2317.43" cy="1443.34" r="0.73"/><circle class="cls-3" cx="1460.75" cy="1217.12" r="0.73"/><circle class="cls-3" cx="2557.62" cy="1338.51" r="0.73"/><circle class="cls-3" cx="97.88" cy="417.76" r="0.73"/><circle class="cls-3" cx="1551.83" cy="935.49" r="0.73"/><circle class="cls-3" cx="2373.25" cy="683.93" r="0.73"/><circle class="cls-3" cx="1701.05" cy="1889.85" r="0.73"/><circle class="cls-3" cx="641.87" cy="20.42" r="0.73"/><circle class="cls-3" cx="2729.19" cy="736.95" r="0.73"/><circle class="cls-3" cx="629.86" cy="1319.69" r="0.73"/><circle class="cls-3" cx="523.86" cy="818.74" r="0.73"/><circle class="cls-3" cx="1744.35" cy="481.08" r="0.73"/><circle class="cls-3" cx="1810.83" cy="1641.41" r="0.73"/><circle class="cls-3" cx="472.52" cy="1133.09" r="0.73"/><circle class="cls-3" cx="922.72" cy="260.09" r="0.73"/><circle class="cls-3" cx="77.23" cy="1224.41" r="0.73"/><circle class="cls-3" cx="2541.67" cy="1813.35" r="0.73"/><circle class="cls-3" cx="944.98" cy="811.2" r="0.73"/><circle class="cls-3" cx="664.05" cy="1156.87" r="0.73"/><circle class="cls-3" cx="693.49" cy="170.64" r="0.73"/><circle class="cls-3" cx="635.96" cy="22.39" r="0.77"/><circle class="cls-3" cx="2509.13" cy="1470.59" r="0.77"/><circle class="cls-3" cx="1942.28" cy="567.26" r="0.77"/><circle class="cls-3" cx="1880.97" cy="1833.46" r="0.77"/><circle class="cls-3" cx="1947.74" cy="43.4" r="0.77"/><circle class="cls-3" cx="718.38" cy="450.55" r="0.77"/><circle class="cls-3" cx="2516.59" cy="978.28" r="0.77"/><circle class="cls-3" cx="1875.06" cy="1089.02" r="0.77"/><circle class="cls-3" cx="1965.72" cy="1665.68" r="0.77"/><circle class="cls-3" cx="2344.67" cy="1032.39" r="0.77"/><circle class="cls-3" cx="2892.5" cy="926.3" r="0.77"/><circle class="cls-3" cx="1806.28" cy="886.45" r="0.77"/><circle class="cls-3" cx="1655.11" cy="1522.9" r="0.77"/><circle class="cls-3" cx="1130.88" cy="316.77" r="0.77"/><circle class="cls-3" cx="1483.32" cy="1493.24" r="0.77"/><circle class="cls-3" cx="1773.02" cy="1251.82" r="0.77"/><circle class="cls-3" cx="1478.92" cy="1837.02" r="0.77"/><circle class="cls-3" cx="2280.83" cy="1739.09" r="0.77"/><circle class="cls-3" cx="2529.88" cy="1705.07" r="0.77"/><circle class="cls-3" cx="2150.13" cy="326.15" r="0.77"/><circle class="cls-3" cx="311.81" cy="229.94" r="0.77"/><circle class="cls-3" cx="109.94" cy="48.65" r="0.77"/><circle class="cls-3" cx="1468.04" cy="383.26" r="0.8"/><circle class="cls-3" cx="677.13" cy="1203.63" r="0.8"/><circle class="cls-3" cx="1642.13" cy="585.56" r="0.8"/><circle class="cls-3" cx="367.74" cy="1857.31" r="0.8"/><circle class="cls-3" cx="577.15" cy="515.48" r="0.8"/><circle class="cls-3" cx="1943.52" cy="765.48" r="0.8"/><circle class="cls-3" cx="1590.71" cy="273.24" r="0.8"/><circle class="cls-3" cx="909.01" cy="1072.46" r="0.8"/><circle class="cls-3" cx="197.12" cy="685.44" r="0.8"/><circle class="cls-3" cx="1733.11" cy="1695" r="0.8"/><circle class="cls-3" cx="121.61" cy="1222.96" r="0.8"/><circle class="cls-3" cx="113.23" cy="179.52" r="0.8"/><circle class="cls-3" cx="1061.11" cy="1613.09" r="0.8"/><circle class="cls-3" cx="1189.08" cy="1277.51" r="0.8"/><circle class="cls-3" cx="1224.42" cy="154.38" r="0.8"/><circle class="cls-3" cx="860.7" cy="637.41" r="0.8"/><circle class="cls-3" cx="1436.84" cy="12.63" r="0.8"/><circle class="cls-3" cx="2709.18" cy="454.17" r="0.8"/><circle class="cls-3" cx="651.06" cy="249.82" r="0.8"/><circle class="cls-3" cx="1156.62" cy="287.11" r="0.8"/><circle class="cls-3" cx="2212.11" cy="185.55" r="0.84"/><circle class="cls-3" cx="2504.06" cy="1399.33" r="0.84"/><circle class="cls-3" cx="881.68" cy="1602.73" r="0.84"/><circle class="cls-3" cx="1862.18" cy="1978.81" r="0.84"/><circle class="cls-3" cx="2881.97" cy="1905.64" r="0.84"/><circle class="cls-3" cx="1714.18" cy="1955.24" r="0.84"/><circle class="cls-3" cx="1556.51" cy="1484.82" r="0.84"/><circle class="cls-3" cx="2619.83" cy="807.77" r="0.84"/><circle class="cls-3" cx="1866.12" cy="1571.26" r="0.84"/><circle class="cls-3" cx="489.01" cy="1714.34" r="0.84"/><circle class="cls-3" cx="963.45" cy="630.41" r="0.84"/><circle class="cls-3" cx="2729.83" cy="829.2" r="0.84"/><circle class="cls-3" cx="535.08" cy="304.35" r="0.84"/><circle class="cls-3" cx="2775.22" cy="1386.96" r="0.84"/><circle class="cls-3" cx="2383.57" cy="568.37" r="0.84"/><circle class="cls-3" cx="2197.97" cy="1956.09" r="0.84"/><circle class="cls-3" cx="1923.43" cy="1770.52" r="0.84"/><circle class="cls-3" cx="359.73" cy="6.21" r="0.84"/><circle class="cls-3" cx="228.55" cy="1361.21" r="0.88"/><circle class="cls-3" cx="1347.97" cy="375.03" r="0.88"/><circle class="cls-3" cx="2206.79" cy="1934.32" r="0.88"/><circle class="cls-3" cx="1203.27" cy="149.19" r="0.88"/><circle class="cls-3" cx="2781.48" cy="326.3" r="0.88"/><circle class="cls-3" cx="344.86" cy="1630.31" r="0.88"/><circle class="cls-3" cx="1273.59" cy="1713.02" r="0.88"/><circle class="cls-3" cx="1352.83" cy="1535.89" r="0.88"/><circle class="cls-3" cx="1947.77" cy="1767.82" r="0.88"/><circle class="cls-3" cx="670.58" cy="1932.99" r="0.88"/><circle class="cls-3" cx="114.81" cy="557.71" r="0.88"/><circle class="cls-3" cx="1708.07" cy="1296.84" r="0.88"/><circle class="cls-3" cx="1430.14" cy="394.05" r="0.88"/><circle class="cls-3" cx="492.54" cy="68.79" r="0.88"/><circle class="cls-3" cx="919.64" cy="1916.1" r="0.88"/><circle class="cls-3" cx="866.24" cy="493.49" r="0.88"/><circle class="cls-3" cx="2384.58" cy="1983.04" r="0.92"/><circle class="cls-3" cx="1745.45" cy="1881.38" r="0.92"/><circle class="cls-3" cx="901.34" cy="972.47" r="0.92"/><circle class="cls-3" cx="2042.64" cy="1424.91" r="0.92"/><circle class="cls-3" cx="1878.81" cy="1930.71" r="0.92"/><circle class="cls-3" cx="1524.71" cy="449.81" r="0.92"/><circle class="cls-3" cx="2852.33" cy="1927.09" r="0.92"/><circle class="cls-3" cx="920.73" cy="1775.58" r="0.92"/><circle class="cls-3" cx="79.9" cy="584.96" r="0.92"/><circle class="cls-3" cx="2232.18" cy="997.53" r="0.92"/><circle class="cls-3" cx="1100.24" cy="251.3" r="0.92"/><circle class="cls-3" cx="2353.14" cy="1921.96" r="0.92"/><circle class="cls-3" cx="2805.41" cy="1413.12" r="0.92"/><circle class="cls-3" cx="79.91" cy="584.95" r="0.92"/><circle class="cls-3" cx="1047.58" cy="615.36" r="0.92"/><circle class="cls-3" cx="1749.52" cy="64.31" r="0.96"/><circle class="cls-3" cx="1631.45" cy="1798.8" r="0.96"/><circle class="cls-3" cx="1811.55" cy="967.99" r="0.96"/><circle class="cls-3" cx="1195.26" cy="30.97" r="0.96"/><circle class="cls-3" cx="1524.71" cy="449.81" r="0.96"/><circle class="cls-3" cx="1618.38" cy="1876.48" r="0.96"/><circle class="cls-3" cx="1524.71" cy="449.81" r="0.96"/><circle class="cls-3" cx="547.24" cy="1806.35" r="0.96"/><circle class="cls-3" cx="1274.09" cy="940.88" r="0.96"/><circle class="cls-3" cx="2344.88" cy="1530.51" r="0.96"/><circle class="cls-3" cx="1643.35" cy="842.53" r="0.96"/><circle class="cls-3" cx="244.68" cy="950.67" r="1"/><circle class="cls-3" cx="2513.55" cy="429.22" r="1"/><circle class="cls-3" cx="2748.93" cy="1738.51" r="1"/><circle class="cls-3" cx="2855.47" cy="1932.25" r="1"/><circle class="cls-3" cx="802.27" cy="1213.61" r="1"/><circle class="cls-3" cx="2232.53" cy="1718.04" r="1"/><circle class="cls-3" cx="85.26" cy="1280.14" r="1"/><circle class="cls-3" cx="719.28" cy="1537.91" r="1"/><circle class="cls-3" cx="2883.45" cy="1722.89" r="1"/><circle class="cls-3" cx="1134.67" cy="1936.49" r="1"/><circle class="cls-3" cx="1556.5" cy="1484.82" r="1"/><circle class="cls-3" cx="1745.53" cy="1731.31" r="1"/><circle class="cls-3" cx="755.24" cy="83.47" r="1"/><circle class="cls-3" cx="2676.28" cy="1976.48" r="1"/><circle class="cls-3" cx="1513.81" cy="1753.25" r="1.05"/><circle class="cls-3" cx="2849.64" cy="1447.54" r="1.05"/><circle class="cls-3" cx="1579.01" cy="1775.94" r="1.05"/><circle class="cls-3" cx="2026.13" cy="531.07" r="1.05"/><circle class="cls-3" cx="2845.54" cy="1388.87" r="1.05"/><circle class="cls-3" cx="353.36" cy="62" r="1.05"/><circle class="cls-3" cx="269.91" cy="234.32" r="1.1"/><circle class="cls-3" cx="2206.79" cy="886.7" r="1.1"/><circle class="cls-3" cx="845.71" cy="279.03" r="1.1"/><circle class="cls-3" cx="1277.69" cy="804.51" r="1.1"/><circle class="cls-3" cx="1115.15" cy="1300.13" r="1.1"/><circle class="cls-3" cx="803.16" cy="510.4" r="1.1"/><circle class="cls-3" cx="1733.32" cy="1559.82" r="1.1"/><circle class="cls-3" cx="495.03" cy="1794.59" r="1.1"/><circle class="cls-3" cx="1687.89" cy="1720.88" r="1.1"/><circle class="cls-3" cx="1037.37" cy="688.76" r="1.15"/><circle class="cls-3" cx="2097.93" cy="794.93" r="1.15"/><circle class="cls-3" cx="2537.19" cy="1698.75" r="1.15"/><circle class="cls-3" cx="1776.44" cy="116.72" r="1.15"/><circle class="cls-3" cx="2729.45" cy="1679.47" r="1.15"/><circle class="cls-3" cx="2603.2" cy="1766.34" r="1.2"/><circle class="cls-3" cx="518.28" cy="1755.84" r="1.2"/><circle class="cls-3" cx="1744.51" cy="1723.3" r="1.2"/><circle class="cls-3" cx="2128.11" cy="1967.87" r="1.2"/><circle class="cls-3" cx="1799.35" cy="1418.56" r="1.2"/><circle class="cls-3" cx="346.34" cy="679.5" r="1.25"/><circle class="cls-3" cx="2745.53" cy="1.25" r="1.25"/><circle class="cls-3" cx="1924.43" cy="926.9" r="1.25"/><circle class="cls-3" cx="265.76" cy="62.56" r="1.25"/><circle class="cls-3" cx="1993.41" cy="1884.54" r="1.25"/><circle class="cls-3" cx="1043.07" cy="788.56" r="1.25"/><circle class="cls-3" cx="900.57" cy="455.04" r="1.25"/><circle class="cls-3" cx="1277.68" cy="804.5" r="1.25"/><circle class="cls-3" cx="2948.51" cy="1722.8" r="1.31"/><circle class="cls-3" cx="818.37" cy="824.98" r="1.31"/><circle class="cls-3" cx="609.33" cy="1691.39" r="1.31"/><circle class="cls-3" cx="326.73" cy="1606.82" r="1.31"/><circle class="cls-3" cx="1747.47" cy="760.31" r="1.31"/><circle class="cls-3" cx="1307.01" cy="1032.72" r="1.37"/><circle class="cls-3" cx="1.37" cy="968.48" r="1.37"/><circle class="cls-3" cx="2612.15" cy="155.54" r="1.37"/><circle class="cls-3" cx="2107.18" cy="1808.65" r="1.37"/><circle class="cls-3" cx="1108.91" cy="743.19" r="1.37"/><circle class="cls-3" cx="923.45" cy="312.27" r="1.37"/><circle class="cls-3" cx="2079.56" cy="1758.6" r="1.37"/><circle class="cls-3" cx="2346.89" cy="1899.59" r="1.43"/><circle class="cls-3" cx="1477.62" cy="1216.8" r="1.43"/><circle class="cls-3" cx="2907.75" cy="1928.74" r="1.43"/><circle class="cls-3" cx="291.76" cy="373.85" r="1.5"/><circle class="cls-3" cx="895.97" cy="146.33" r="1.5"/><circle class="cls-3" cx="2402.58" cy="108.59" r="1.5"/><circle class="cls-3" cx="108.02" cy="969.44" r="1.5"/><circle class="cls-3" cx="2241.98" cy="436.83" r="1.57"/><circle class="cls-3" cx="583.61" cy="1205.58" r="1.57"/><circle class="cls-3" cx="2206.98" cy="1525.27" r="1.64"/><circle class="cls-3" cx="2585.78" cy="1293.12" r="1.64"/><circle class="cls-3" cx="1331.53" cy="1396.78" r="1.64"/><circle class="cls-3" cx="795.35" cy="1252.43" r="1.71"/><circle class="cls-3" cx="140.33" cy="562.76" r="1.71"/><circle class="cls-3" cx="372.43" cy="918.36" r="1.71"/><circle class="cls-3" cx="2602.48" cy="1964.12" r="1.79"/><circle class="cls-3" cx="2825.51" cy="973.81" r="1.79"/><circle class="cls-3" cx="1775.37" cy="1919.25" r="1.87"/><circle class="cls-3" cx="1911.73" cy="1816.74" r="1.96"/><circle class="cls-3" cx="448.89" cy="579.38" r="1.96"/><circle class="cls-3" cx="720.38" cy="803.93" r="2.05"/><circle class="cls-3" cx="598.25" cy="1617.49" r="2.05"/><circle class="cls-3" cx="2612.1" cy="155.59" r="2.05"/><circle class="cls-3" cx="1334.51" cy="1351.8" r="2.05"/><circle class="cls-3" cx="2092.08" cy="1224.42" r="2.05"/><circle class="cls-3" cx="1203.29" cy="149.22" r="2.05"/><circle class="cls-3" cx="1684.77" cy="84.13" r="2.14"/><circle class="cls-3" cx="1306.19" cy="952.16" r="2.14"/><circle class="cls-3" cx="2629.17" cy="1991.66" r="2.14"/><circle class="cls-3" cx="1733.22" cy="1695.06" r="2.14"/><circle class="cls-3" cx="1796.49" cy="1192.16" r="2.14"/><circle class="cls-3" cx="1344.53" cy="1639.12" r="2.24"/><circle class="cls-3" cx="1203.28" cy="149.22" r="2.34"/><circle class="cls-3" cx="1264.42" cy="1947.73" r="2.34"/><circle class="cls-3" cx="2733.96" cy="1868.78" r="2.45"/><circle class="cls-3" cx="1824.91" cy="1737.76" r="2.45"/><circle class="cls-3" cx="937.22" cy="405.73" r="2.56"/><circle class="cls-3" cx="486.94" cy="1356.11" r="2.8"/><circle class="cls-3" cx="2781.39" cy="1576.85" r="2.8"/><circle class="cls-3" cx="1749.7" cy="1983.27" r="4.37"/><circle class="cls-3" cx="2533.61" cy="663.57" r="4.37"/><circle class="cls-3" cx="1547.79" cy="182.24" r="5"/></g></g></svg>