<svg xmlns="http://www.w3.org/2000/svg" xmlns:xlink="http://www.w3.org/1999/xlink" version="1.1" x="0px" y="0px" viewBox="0 0 100 125" enable-background="new 0 0 100 100" xml:space="preserve"><g display="none"><rect x="12.5" y="67.5" display="inline" width="15" height="3.75"/><rect x="76.25" y="67.5" display="inline" width="15" height="3.75"/><rect x="23.75" y="71.25" display="inline" width="56.25" height="3.75"/><rect x="8.75" y="63.75" display="inline" width="3.75" height="3.75"/><rect x="5" y="60" display="inline" width="3.75" height="3.75"/><rect x="5" y="56.25" display="inline" width="3.75" height="3.75"/><rect x="5" y="52.5" display="inline" width="3.75" height="3.75"/><rect x="8.75" y="48.75" display="inline" width="3.75" height="3.75"/><rect x="12.5" y="45" display="inline" width="3.75" height="3.75"/><rect x="16.25" y="45" display="inline" width="3.75" height="3.75"/><rect x="20" y="45" display="inline" width="3.75" height="3.75"/><rect x="23.75" y="41.25" display="inline" width="3.75" height="3.75"/><rect x="23.75" y="37.5" display="inline" width="3.75" height="3.75"/><rect x="23.75" y="33.75" display="inline" width="3.75" height="3.75"/><rect x="27.5" y="30" display="inline" width="3.75" height="3.75"/><rect x="38.75" y="26.25" display="inline" width="3.75" height="3.75"/><rect x="31.25" y="30" display="inline" width="3.75" height="3.75"/><rect x="35" y="26.25" display="inline" width="3.75" height="3.75"/><rect x="42.5" y="30" display="inline" width="3.75" height="3.75"/><rect x="46.25" y="33.75" display="inline" width="3.75" height="3.75"/><rect x="50" y="33.75" display="inline" width="3.75" height="3.75"/><rect x="53.75" y="30" display="inline" width="3.75" height="3.75"/><rect x="57.5" y="26.25" display="inline" width="3.75" height="3.75"/><rect x="61.25" y="22.5" display="inline" width="3.75" height="3.75"/><rect x="65" y="22.5" display="inline" width="3.75" height="3.75"/><rect x="68.75" y="26.25" display="inline" width="3.75" height="3.75"/><rect x="72.5" y="30" display="inline" width="3.75" height="3.75"/><rect x="76.25" y="30" display="inline" width="3.75" height="3.75"/><rect x="80" y="33.75" display="inline" width="3.75" height="3.75"/><rect x="80" y="37.5" display="inline" width="3.75" height="3.75"/><rect x="80" y="41.25" display="inline" width="3.75" height="3.75"/><rect x="83.75" y="45" display="inline" width="3.75" height="3.75"/><rect x="87.5" y="48.75" display="inline" width="3.75" height="3.75"/><rect x="87.5" y="52.5" display="inline" width="3.75" height="3.75"/><rect x="91.25" y="56.25" display="inline" width="3.75" height="3.75"/><rect x="91.25" y="60" display="inline" width="3.75" height="3.75"/><rect x="91.25" y="63.75" display="inline" width="3.75" height="3.75"/></g><g><g><path d="M50.16,34.261c-0.727,0-1.318,0.592-1.318,1.318c0,0.727,0.591,1.318,1.318,1.318s1.318-0.591,1.318-1.318    C51.479,34.853,50.887,34.261,50.16,34.261z M49.972,35.579c0-0.104,0.084-0.189,0.188-0.189s0.188,0.084,0.188,0.189    C50.349,35.787,49.972,35.787,49.972,35.579z"/><path d="M80.84,39.696c0.181-1.347,0.283-2.72,0.283-4.117c0-17.099-13.864-30.963-30.962-30.963S19.198,18.48,19.198,35.579    c0,1.397,0.102,2.77,0.283,4.117h-4.629V95h71.146V39.696H80.84z M40.049,35.579c0-5.584,4.527-10.112,10.111-10.112    s10.112,4.527,10.112,10.112c0,1.473-0.345,2.856-0.914,4.117H40.962C40.394,38.436,40.049,37.052,40.049,35.579z M82.286,91.288    H18.563v-47.88h63.723V91.288z"/></g></g><text x="0" y="115" fill="#000000" font-size="5px" font-weight="bold" font-family="'Helvetica Neue', Helvetica, Arial-Unicode, Arial, Sans-serif">Created by Louis Dawson</text><text x="0" y="120" fill="#000000" font-size="5px" font-weight="bold" font-family="'Helvetica Neue', Helvetica, Arial-Unicode, Arial, Sans-serif">from the Noun Project</text></svg>