<svg xmlns="http://www.w3.org/2000/svg" data-name="Layer 1" viewBox="0 0 98 122.5" x="0px" y="0px"><title>Untitled-20</title><path d="M97,13.25H90.83V88.79a2,2,0,0,1-2,2H13.25V97a2,2,0,0,0,2,2H97a2,2,0,0,0,2-2V15.29A2,2,0,0,0,97,13.25Z" transform="translate(-1 -1)"/><path d="M86.75,86.75V3a2,2,0,0,0-2-2H3A2,2,0,0,0,1,3V84.71a2,2,0,0,0,2,2H86.75ZM62.25,56.13c0,6.13-6.14,6.13-10.21,6.13-4.93,0-10.21-2.68-10.21-10.21S47.11,41.83,52,41.83h6.13V19.11L37.75,32.72V64.29c0,6.13-6.14,6.13-10.21,6.13-4.93,0-10.21-2.68-10.21-10.21S22.61,50,27.54,50h6.12V31.63a2,2,0,0,1,.91-1.7l24.5-16.33a2,2,0,0,1,3.17,1.7Z" transform="translate(-1 -1)"/><text x="0" y="113" fill="#000000" font-size="5px" font-weight="bold" font-family="'Helvetica Neue', Helvetica, Arial-Unicode, Arial, Sans-serif">Created by JohnnyZi</text><text x="0" y="118" fill="#000000" font-size="5px" font-weight="bold" font-family="'Helvetica Neue', Helvetica, Arial-Unicode, Arial, Sans-serif">from the Noun Project</text></svg>