<svg xmlns="http://www.w3.org/2000/svg" xmlns:xlink="http://www.w3.org/1999/xlink" version="1.1" x="0px" y="0px" viewBox="0 0 100 125" style="enable-background:new 0 0 100 100;" xml:space="preserve"><g><path d="M36.71,62.28c5.98,0,10.84-4.86,10.84-10.84c0-6.79-6.27-10.72-10.61-10.84h-0.23c-5.98,0-10.84,4.86-10.84,10.84   C25.86,57.42,30.73,62.28,36.71,62.28z M37.99,42.84c0.02-0.05,0.03-0.11,0.05-0.16c0.04,0.01,0.07,0.01,0.11,0.02   C38.09,42.75,38.04,42.78,37.99,42.84z M36.05,42.56c-0.84,2.8-1.28,5.73-1.29,8.57c-0.01,3.12,0.47,6.2,1.43,9.18   c-4.67-0.27-8.39-4.14-8.39-8.88C27.8,46.75,31.44,42.9,36.05,42.56z"/><path d="M94.05,51.14c0-16.96-14.79-28.18-28.07-29.11v-1.35H6.1v60.86h59.88v-1.26C81.58,79.7,94.05,66.88,94.05,51.14z    M65.98,50.41c0.36,0.2,0.63,0.51,0.7,0.88c0.09,0.48-0.17,1.06-0.7,1.39V50.41z M65.98,53.51c1-0.39,1.62-1.37,1.43-2.36   c-0.13-0.7-0.7-1.28-1.43-1.54v-5.02c2.98,0.71,5.29,2.88,5.79,5.5c0.6,3.15-1.58,7.08-5.79,8.3V53.51z M64.05,79.6h-56V22.61h56   V79.6z M65.98,61.32v-1.1c4.99-1.2,8.43-5.91,7.55-10.48c-0.66-3.43-3.69-6.24-7.54-7.01l-0.01,0.06v-1.11   c4.94,0.55,8.78,4.73,8.78,9.81C74.76,56.6,70.92,60.78,65.98,61.32z"/></g><text x="0" y="115" fill="#000000" font-size="5px" font-weight="bold" font-family="'Helvetica Neue', Helvetica, Arial-Unicode, Arial, Sans-serif">Created by Elsa Mae Brydalski</text><text x="0" y="120" fill="#000000" font-size="5px" font-weight="bold" font-family="'Helvetica Neue', Helvetica, Arial-Unicode, Arial, Sans-serif">from the Noun Project</text></svg>