<?xml version="1.0" encoding="utf-8"?>
<!-- Svg Vector Icons : http://www.onlinewebfonts.com/icon -->
<!DOCTYPE svg PUBLIC "-//W3C//DTD SVG 1.1//EN" "http://www.w3.org/Graphics/SVG/1.1/DTD/svg11.dtd">
<svg version="1.1" xmlns="http://www.w3.org/2000/svg" xmlns:xlink="http://www.w3.org/1999/xlink" x="0px" y="0px" viewBox="0 0 256 256" enable-background="new 0 0 256 256" xml:space="preserve">
<metadata> Svg Vector Icons : http://www.onlinewebfonts.com/icon </metadata>
<g><g><g><path fill="#000000" d="M220.8,28.6v9.7l-1.4,0.9c-2.1,1.4-3.8,3.4-5.3,6.3c-1.2,2.3-1.4,3.3-1.4,7.1c0,3.8,0.2,4.9,1.4,7.1c1.5,2.9,3.2,4.9,5.3,6.3l1.4,0.9v44.1c0,47.8-0.1,49.8-2.9,58.3c-1.9,5.8-6,13.5-9.6,18.2c-2.7,3.5-3.3,4-4.9,4c-1,0-2.4,0.1-3.2,0.1c-0.9,0.1-5.1,3.8-14.4,13.2c-7.2,7.2-13.4,13.7-13.9,14.5c-0.5,1.1-0.7,2.5-0.6,4.3c0.2,2.4,0.6,3.2,2.7,5.6c4.1,4.8,7.4,7.3,10.1,7.6c1.3,0.1,3,0.1,3.8-0.1c1.7-0.4,27.1-25.4,28.5-27.9c0.5-1,0.7-2.3,0.5-3.9c-0.3-2.3-0.1-2.5,2.6-5.8c7.9-9.3,13.8-21.1,16.6-33.6c1.2-5.2,1.2-5.7,1.4-52.5l0.2-47.2l2.2-1.6c4.5-3.3,7-9.8,5.7-15.4c-0.7-3.5-3.4-7.8-6.2-9.6l-1.8-1.3v-9.6v-9.7h-8.4h-8.4V28.6L220.8,28.6z"/><path fill="#000000" d="M92.2,27.9c-54.7,6.3-91.7,58.1-80,112.2C23.7,194,80.6,225.8,133,207.8c57.4-19.8,80.7-89.1,46.8-139.5C160.4,39.6,126.5,24,92.2,27.9z M54.9,73.4c-0.2,0.3-1.6,2.3-3.2,4.5c-3.3,4.6-5.9,9.5-8.1,15.4c-1.8,5-2,6-0.2,2.2c2.2-4.9,6.1-10.3,10.6-14.9l4.4-4.5l3.8,3.8l3.8,3.8l-2.8,3.8c-3.4,4.5-6.7,10.6-8.4,15.8c-1.4,4.2-2.8,11.5-2.8,14.7v2.1H39.4H26.6L27,115c0.4-6.1,2-14.1,3.8-19.6c2.9-8.8,8.9-19.1,14.8-25.7l3-3.4l3.3,3.3C53.7,71.4,55.1,73.1,54.9,73.4z M113.2,88.1c5.4,1.9,9.2,4.3,13.3,8.3c4,4,6.4,7.8,8.3,13.3c1.2,3.4,1.4,4.6,1.4,10.4s-0.2,7.1-1.4,10.4c-2,5.5-4.4,9.3-8.3,13.3c-4,4-7.8,6.4-13.3,8.3c-3.4,1.2-4.6,1.4-10.4,1.4s-7.1-0.2-10.4-1.4c-5.5-2-9.3-4.4-13.3-8.3c-12.1-12.1-13.3-30.2-3-44.1c4.4-5.9,12.2-10.9,19.5-12.5C100.5,86,108.4,86.4,113.2,88.1z M179.4,123.9c-1.2,14.9-5.2,27.2-12.6,38.6c-2.8,4.3-8.5,11.3-9.2,11.3c-0.2,0-2-1.5-4-3.3l-3.6-3.3l2-2.6c1.1-1.4,3.1-4.7,4.4-7.3c2.3-4.5,6-13.5,6-14.4c0-0.2-0.9,1.2-2,3.3c-1.1,2-2.7,4.9-3.7,6.2c-2.1,3.1-9.1,10.4-9.8,10.4c-0.3,0-2.2-1.6-4.2-3.7l-3.6-3.6l2.4-2.5c3.4-3.6,5.5-6.9,8.2-12.5c2.3-4.8,4.4-12.3,4.4-15.4c0-0.9,0.2-2.4,0.3-3.3l0.4-1.6h12.5h12.6L179.4,123.9z"/><path fill="#000000" d="M97.4,104.1c-12,4.3-15.4,19.1-6.6,27.9c3.4,3.5,6.6,4.7,11.9,4.7c5.3,0,8.4-1.3,11.9-4.7c3.5-3.4,4.7-6.6,4.7-11.9c0-5.3-1.3-8.4-4.7-11.9C110.3,103.9,102.9,102.1,97.4,104.1z"/></g></g></g>
</svg>